<?xml version="1.0" encoding="iso-8859-1"?>
<!-- Generator: Adobe Illustrator 19.0.0, SVG Export Plug-In . SVG Version: 6.00 Build 0)  -->
<svg version="1.1" id="Capa_1" xmlns="http://www.w3.org/2000/svg" xmlns:xlink="http://www.w3.org/1999/xlink" x="0px" y="0px"
	 viewBox="0 0 512 512" style="enable-background:new 0 0 512 512;" xml:space="preserve">
<path style="fill:#664B34;" d="M151,0h-45C81.186,0,61,20.186,61,45v422c0,24.814,20.186,45,45,45h45l30-30V30L151,0z"/>
<path style="fill:#17ACE8;" d="M481,45v422c0,24.901-20.099,45-45,45H151V0h285C460.901,0,481,20.099,481,45z"/>
<path style="fill:#1689FC;" d="M481,45v422c0,24.901-20.099,45-45,45H316V0h120C460.901,0,481,20.099,481,45z"/>
<g>
	<path style="fill:#A8AFF1;" d="M106,120H46c-8.291,0-15-6.709-15-15s6.709-15,15-15h60c8.291,0,15,6.709,15,15S114.291,120,106,120
		z"/>
	<path style="fill:#A8AFF1;" d="M106,272H46c-8.291,0-15-6.709-15-15s6.709-15,15-15h60c8.291,0,15,6.709,15,15
		C121,265.291,114.291,272,106,272z"/>
	<path style="fill:#A8AFF1;" d="M106,422H46c-8.291,0-15-6.709-15-15s6.709-15,15-15h60c8.291,0,15,6.709,15,15S114.291,422,106,422
		z"/>
</g>
<g>
	<path style="fill:#664B34;" d="M421,347c0,8.399-6.599,15-15,15H226c-8.401,0-15-6.601-15-15c0-8.401,6.599-15,15-15h180
		C414.401,332,421,338.599,421,347z"/>
	<path style="fill:#664B34;" d="M421,407c0,8.399-6.599,15-15,15H226c-8.401,0-15-6.601-15-15c0-8.401,6.599-15,15-15h180
		C414.401,392,421,398.599,421,407z"/>
</g>
<path style="fill:#E5E5E5;" d="M406,90H226c-8.401,0-15,6.599-15,15v60c0,8.399,6.599,15,15,15h180c8.401,0,15-6.601,15-15v-60
	C421,96.599,414.401,90,406,90z"/>
<g>
	<path style="fill:#59422D;" d="M421,407c0,8.399-6.599,15-15,15h-90v-30h90C414.401,392,421,398.599,421,407z"/>
	<path style="fill:#59422D;" d="M421,347c0,8.399-6.599,15-15,15h-90v-30h90C414.401,332,421,338.599,421,347z"/>
</g>
<path style="fill:#D9D9D9;" d="M421,105v60c0,8.399-6.599,15-15,15h-90V90h90C414.401,90,421,96.599,421,105z"/>
<g>
</g>
<g>
</g>
<g>
</g>
<g>
</g>
<g>
</g>
<g>
</g>
<g>
</g>
<g>
</g>
<g>
</g>
<g>
</g>
<g>
</g>
<g>
</g>
<g>
</g>
<g>
</g>
<g>
</g>
</svg>
