<svg height="512" viewBox="0 0 60 60" width="512" xmlns="http://www.w3.org/2000/svg"><g id="Page-1" fill="none" fill-rule="evenodd"><g id="046---Important-Message" fill="rgb(0,0,0)" fill-rule="nonzero"><path id="Shape" d="m49 27.114v-23.114c0-2.209139-1.790861-4-4-4h-41c-2.209139 0-4 1.790861-4 4v32c0 2.209139 1.790861 4 4 4h3v6.9c-.00133181.5573618.21948985 1.0922792.61360531 1.4863947.39411547.3941155.92903284.6149371 1.48639469.6136053.4050454-.0001246.80161821-.1160086 1.143-.334l13.471-8.666h2.567c-1.5943995 8.8425384 3.9701326 17.3981797 12.6996519 19.5261102 8.7295192 2.1279305 17.6069952-2.9072892 20.2606171-11.4916287s-1.833735-17.7509444-10.241269-20.9204815zm-25 10.886h-7c-.5522847 0-1 .4477153-1 1s.4477153 1 1 1h3.015l-10.851 6.976c-.016.009-.061.035-.164-.076v-6.9h4c.5522847 0 1-.4477153 1-1s-.4477153-1-1-1h-9c-1.1045695 0-2-.8954305-2-2v-32c0-1.1045695.8954305-2 2-2h41c1.1045695 0 2 .8954305 2 2v22.5c-8.7334244-2.16171-17.6307151 2.891821-20.247 11.5zm19 20c-8.2842712 0-15-6.7157288-15-15s6.7157288-15 15-15 15 6.7157288 15 15c-.0093685 8.2803876-6.7196124 14.9906315-15 15z"/><path id="Shape" d="m36.5 31.745c-2.6782498 1.5516834-4.7179374 4.0046248-5.755 6.921-.1242441.3379474-.0572155.7165959.1754905.9913558.2327059.2747598.5951556.4032035.9489448.3362839.3537892-.0669197.644287-.3188692.7605647-.6596397.8774154-2.4683265 2.6034447-4.5445235 4.87-5.858.4596821-.2843876.61017-.882589.3397768-1.3506397s-.8637835-.6365131-1.3397768-.3803603z"/><path id="Shape" d="m6 8h37c.5522847 0 1-.44771525 1-1s-.4477153-1-1-1h-37c-.55228475 0-1 .44771525-1 1s.44771525 1 1 1z"/><path id="Shape" d="m43 11h-31c-.5522847 0-1 .4477153-1 1s.4477153 1 1 1h31c.5522847 0 1-.4477153 1-1s-.4477153-1-1-1z"/><path id="Shape" d="m6 13h2c.55228475 0 1-.4477153 1-1s-.44771525-1-1-1h-2c-.55228475 0-1 .4477153-1 1s.44771525 1 1 1z"/><path id="Shape" d="m43 16h-4c-.5522847 0-1 .4477153-1 1s.4477153 1 1 1h4c.5522847 0 1-.4477153 1-1s-.4477153-1-1-1z"/><path id="Shape" d="m6 18h29c.5522847 0 1-.4477153 1-1s-.4477153-1-1-1h-29c-.55228475 0-1 .4477153-1 1s.44771525 1 1 1z"/><path id="Shape" d="m43 21h-26c-.5522847 0-1 .4477153-1 1s.4477153 1 1 1h26c.5522847 0 1-.4477153 1-1s-.4477153-1-1-1z"/><path id="Shape" d="m6 23h7c.5522847 0 1-.4477153 1-1s-.4477153-1-1-1h-7c-.55228475 0-1 .4477153-1 1s.44771525 1 1 1z"/><path id="Shape" d="m30 26h-5c-.5522847 0-1 .4477153-1 1s.4477153 1 1 1h5c.5522847 0 1-.4477153 1-1s-.4477153-1-1-1z"/><path id="Shape" d="m6 28h14c.5522847 0 1-.4477153 1-1s-.4477153-1-1-1h-14c-.55228475 0-1 .4477153-1 1s.44771525 1 1 1z"/><path id="Shape" d="m23 31h-17c-.55228475 0-1 .4477153-1 1s.44771525 1 1 1h17c.5522847 0 1-.4477153 1-1s-.4477153-1-1-1z"/><path id="Shape" d="m43 49c-1.6568542 0-3 1.3431458-3 3s1.3431458 3 3 3 3-1.3431458 3-3-1.3431458-3-3-3zm0 4c-.5522847 0-1-.4477153-1-1s.4477153-1 1-1 1 .4477153 1 1-.4477153 1-1 1z"/><path id="Shape" d="m43 31c-1.6568542 0-3 1.3431458-3 3v10c0 1.6568542 1.3431458 3 3 3s3-1.3431458 3-3v-10c0-1.6568542-1.3431458-3-3-3zm1 13c0 .5522847-.4477153 1-1 1s-1-.4477153-1-1v-10c0-.5522847.4477153-1 1-1s1 .4477153 1 1z"/><circle id="Oval" cx="31" cy="43" r="1"/></g></g></svg>