<svg width="76" height="20" viewBox="0 0 76 20" fill="none" xmlns="http://www.w3.org/2000/svg">
<rect x="0.5" y="0.5" width="75" height="19" rx="2.5" stroke="#27AE60"/>
<path d="M24.7622 11.4541C24.6834 12.2884 24.3755 12.9401 23.8384 13.4092C23.3013 13.8747 22.5869 14.1074 21.6953 14.1074C21.0723 14.1074 20.5226 13.9606 20.0464 13.667C19.5737 13.3698 19.2085 12.9491 18.9507 12.4048C18.6929 11.8605 18.5586 11.2285 18.5479 10.5088V9.77832C18.5479 9.04069 18.6785 8.39079 18.9399 7.82861C19.2013 7.26644 19.5755 6.83317 20.0625 6.52881C20.5531 6.22445 21.1188 6.07227 21.7598 6.07227C22.6227 6.07227 23.3174 6.3068 23.8438 6.77588C24.3701 7.24495 24.6763 7.90739 24.7622 8.76318H23.4087C23.3442 8.20101 23.1795 7.79639 22.9146 7.54932C22.6532 7.29867 22.2682 7.17334 21.7598 7.17334C21.1689 7.17334 20.7142 7.38997 20.3955 7.82324C20.0804 8.25293 19.9193 8.88493 19.9121 9.71924V10.4121C19.9121 11.2572 20.0625 11.9017 20.3633 12.3457C20.6676 12.7897 21.1117 13.0117 21.6953 13.0117C22.2288 13.0117 22.6299 12.8918 22.8984 12.6519C23.167 12.4119 23.3371 12.0127 23.4087 11.4541H24.7622ZM29.3276 14C29.2703 13.889 29.2202 13.7082 29.1772 13.4575C28.7619 13.8908 28.2534 14.1074 27.6519 14.1074C27.0682 14.1074 26.592 13.9409 26.2231 13.6079C25.8543 13.2749 25.6699 12.8631 25.6699 12.3726C25.6699 11.7531 25.8991 11.2786 26.3574 10.9492C26.8193 10.6162 27.4782 10.4497 28.334 10.4497H29.1343V10.0684C29.1343 9.76758 29.0501 9.52767 28.8818 9.34863C28.7135 9.16602 28.4575 9.07471 28.1138 9.07471C27.8166 9.07471 27.5731 9.1499 27.3833 9.30029C27.1935 9.4471 27.0986 9.63509 27.0986 9.86426H25.7935C25.7935 9.54557 25.8991 9.24837 26.1104 8.97266C26.3216 8.69336 26.6081 8.47493 26.9697 8.31738C27.335 8.15983 27.7414 8.08105 28.189 8.08105C28.8693 8.08105 29.4118 8.25293 29.8164 8.59668C30.221 8.93685 30.4287 9.41667 30.4395 10.0361V12.6572C30.4395 13.18 30.5129 13.5972 30.6597 13.9087V14H29.3276ZM27.8936 13.0601C28.1514 13.0601 28.3931 12.9974 28.6187 12.8721C28.8478 12.7467 29.0197 12.5785 29.1343 12.3672V11.2715H28.4307C27.9473 11.2715 27.5838 11.3556 27.3403 11.5239C27.0968 11.6922 26.9751 11.9303 26.9751 12.2383C26.9751 12.4889 27.0575 12.6895 27.2222 12.8398C27.3905 12.9867 27.6143 13.0601 27.8936 13.0601ZM35.3271 13.4307C34.944 13.8818 34.3997 14.1074 33.6943 14.1074C33.0641 14.1074 32.5861 13.923 32.2603 13.5542C31.938 13.1854 31.7769 12.6519 31.7769 11.9536V8.18848H33.082V11.9375C33.082 12.6751 33.3882 13.0439 34.0005 13.0439C34.6343 13.0439 35.0622 12.8166 35.2842 12.3618V8.18848H36.5894V14H35.3594L35.3271 13.4307ZM39.5542 6.77588V8.18848H40.5801V9.15527H39.5542V12.3994C39.5542 12.6214 39.5972 12.7826 39.6831 12.8828C39.7726 12.9795 39.9302 13.0278 40.1558 13.0278C40.3062 13.0278 40.4583 13.0099 40.6123 12.9741V13.9839C40.3151 14.0662 40.0286 14.1074 39.7529 14.1074C38.7503 14.1074 38.249 13.5542 38.249 12.4478V9.15527H37.293V8.18848H38.249V6.77588H39.5542ZM42.9702 14H41.665V8.18848H42.9702V14ZM41.5845 6.6792C41.5845 6.47868 41.6471 6.31217 41.7725 6.17969C41.9014 6.0472 42.084 5.98096 42.3203 5.98096C42.5566 5.98096 42.7393 6.0472 42.8682 6.17969C42.9971 6.31217 43.0615 6.47868 43.0615 6.6792C43.0615 6.87614 42.9971 7.04085 42.8682 7.17334C42.7393 7.30225 42.5566 7.3667 42.3203 7.3667C42.084 7.3667 41.9014 7.30225 41.7725 7.17334C41.6471 7.04085 41.5845 6.87614 41.5845 6.6792ZM44.1519 11.0405C44.1519 10.4712 44.2646 9.95915 44.4902 9.50439C44.7158 9.04606 45.0327 8.69515 45.4409 8.45166C45.8491 8.20459 46.3182 8.08105 46.8481 8.08105C47.6323 8.08105 48.2679 8.3335 48.7549 8.83838C49.2454 9.34326 49.5104 10.0129 49.5498 10.8472L49.5552 11.1533C49.5552 11.7262 49.4442 12.2383 49.2222 12.6895C49.0037 13.1406 48.6886 13.4897 48.2769 13.7368C47.8687 13.9839 47.396 14.1074 46.8589 14.1074C46.0389 14.1074 45.3818 13.8353 44.8877 13.291C44.3971 12.7432 44.1519 12.0145 44.1519 11.105V11.0405ZM45.457 11.1533C45.457 11.7513 45.5806 12.2204 45.8276 12.5605C46.0747 12.8971 46.4185 13.0654 46.8589 13.0654C47.2993 13.0654 47.6413 12.8936 47.8848 12.5498C48.1318 12.2061 48.2554 11.703 48.2554 11.0405C48.2554 10.4533 48.1283 9.98779 47.874 9.64404C47.6234 9.30029 47.2814 9.12842 46.8481 9.12842C46.422 9.12842 46.0837 9.2985 45.833 9.63867C45.5824 9.97526 45.457 10.4801 45.457 11.1533ZM51.8701 8.18848L51.9077 8.85986C52.3374 8.34066 52.9014 8.08105 53.5996 8.08105C54.8099 8.08105 55.4258 8.77393 55.4473 10.1597V14H54.1421V10.2349C54.1421 9.86605 54.0615 9.59391 53.9004 9.41846C53.7428 9.23942 53.4832 9.1499 53.1216 9.1499C52.5952 9.1499 52.2031 9.38802 51.9453 9.86426V14H50.6401V8.18848H51.8701Z" fill="#27AE60"/>
</svg>
