<svg width="76" height="20" viewBox="0 0 76 20" fill="none" xmlns="http://www.w3.org/2000/svg">
<rect x="0.5" y="0.5" width="75" height="19" rx="2.5" stroke="#E67E22"/>
<path d="M31.7622 11.4541C31.6834 12.2884 31.3755 12.9401 30.8384 13.4092C30.3013 13.8747 29.5869 14.1074 28.6953 14.1074C28.0723 14.1074 27.5226 13.9606 27.0464 13.667C26.5737 13.3698 26.2085 12.9491 25.9507 12.4048C25.6929 11.8605 25.5586 11.2285 25.5479 10.5088V9.77832C25.5479 9.04069 25.6785 8.39079 25.9399 7.82861C26.2013 7.26644 26.5755 6.83317 27.0625 6.52881C27.5531 6.22445 28.1188 6.07227 28.7598 6.07227C29.6227 6.07227 30.3174 6.3068 30.8438 6.77588C31.3701 7.24495 31.6763 7.90739 31.7622 8.76318H30.4087C30.3442 8.20101 30.1795 7.79639 29.9146 7.54932C29.6532 7.29867 29.2682 7.17334 28.7598 7.17334C28.1689 7.17334 27.7142 7.38997 27.3955 7.82324C27.0804 8.25293 26.9193 8.88493 26.9121 9.71924V10.4121C26.9121 11.2572 27.0625 11.9017 27.3633 12.3457C27.6676 12.7897 28.1117 13.0117 28.6953 13.0117C29.2288 13.0117 29.6299 12.8918 29.8984 12.6519C30.167 12.4119 30.3371 12.0127 30.4087 11.4541H31.7622ZM34.2437 14H32.9385V8.18848H34.2437V14ZM32.8579 6.6792C32.8579 6.47868 32.9206 6.31217 33.0459 6.17969C33.1748 6.0472 33.3574 5.98096 33.5938 5.98096C33.8301 5.98096 34.0127 6.0472 34.1416 6.17969C34.2705 6.31217 34.335 6.47868 34.335 6.6792C34.335 6.87614 34.2705 7.04085 34.1416 7.17334C34.0127 7.30225 33.8301 7.3667 33.5938 7.3667C33.3574 7.3667 33.1748 7.30225 33.0459 7.17334C32.9206 7.04085 32.8579 6.87614 32.8579 6.6792ZM37.3052 6.77588V8.18848H38.3311V9.15527H37.3052V12.3994C37.3052 12.6214 37.3481 12.7826 37.4341 12.8828C37.5236 12.9795 37.6812 13.0278 37.9067 13.0278C38.0571 13.0278 38.2093 13.0099 38.3633 12.9741V13.9839C38.0661 14.0662 37.7796 14.1074 37.5039 14.1074C36.5013 14.1074 36 13.5542 36 12.4478V9.15527H35.0439V8.18848H36V6.77588H37.3052ZM41.8921 14.1074C41.0649 14.1074 40.3936 13.8478 39.8779 13.3286C39.3659 12.8058 39.1099 12.1112 39.1099 11.2446V11.0835C39.1099 10.5034 39.2209 9.986 39.4429 9.53125C39.6685 9.07292 39.9836 8.71663 40.3882 8.4624C40.7928 8.20817 41.244 8.08105 41.7417 8.08105C42.533 8.08105 43.1436 8.3335 43.5732 8.83838C44.0065 9.34326 44.2231 10.0576 44.2231 10.9814V11.5078H40.4258C40.4652 11.9876 40.6245 12.3672 40.9038 12.6465C41.1867 12.9258 41.5412 13.0654 41.9673 13.0654C42.5653 13.0654 43.0522 12.8237 43.4282 12.3403L44.1318 13.0117C43.8991 13.359 43.5876 13.6294 43.1973 13.8228C42.8105 14.0125 42.3755 14.1074 41.8921 14.1074ZM41.7363 9.12842C41.3783 9.12842 41.0882 9.25374 40.8662 9.50439C40.6478 9.75505 40.5081 10.1042 40.4473 10.5518H42.9341V10.4551C42.9054 10.0182 42.7891 9.6888 42.585 9.4668C42.3809 9.24121 42.098 9.12842 41.7363 9.12842ZM44.9966 11.0513C44.9966 10.1561 45.2043 9.43815 45.6196 8.89746C46.035 8.35319 46.5918 8.08105 47.29 8.08105C47.9059 8.08105 48.4036 8.2959 48.7832 8.72559V5.75H50.0884V14H48.9067L48.8423 13.3984C48.452 13.8711 47.931 14.1074 47.2793 14.1074C46.599 14.1074 46.0475 13.8335 45.625 13.2856C45.2061 12.7378 44.9966 11.993 44.9966 11.0513ZM46.3018 11.1641C46.3018 11.7549 46.4146 12.2168 46.6401 12.5498C46.8693 12.8792 47.1934 13.0439 47.6123 13.0439C48.1458 13.0439 48.5361 12.8058 48.7832 12.3296V9.84814C48.5433 9.38265 48.1566 9.1499 47.623 9.1499C47.2005 9.1499 46.8747 9.3182 46.6455 9.65479C46.4163 9.98779 46.3018 10.4909 46.3018 11.1641Z" fill="#E67E22"/>
</svg>
