<?xml version="1.0" encoding="iso-8859-1"?>
<!-- Generator: Adobe Illustrator 19.0.0, SVG Export Plug-In . SVG Version: 6.00 Build 0)  -->
<svg version="1.1" id="Capa_1" xmlns="http://www.w3.org/2000/svg" xmlns:xlink="http://www.w3.org/1999/xlink" x="0px" y="0px"
	 viewBox="0 0 512.004 512.004" style="enable-background:new 0 0 512.004 512.004;" xml:space="preserve">
<g>
	<g>
		<g>
			<path d="M226.322,480c-100.8,0-176-33.76-176-64V308.48c36.16,26.56,100,43.52,176,43.52h16v-32h-16c-100.8,0-176-33.76-176-64
				V148.48c36.16,26.56,100,43.52,176,43.52s139.84-16.96,176-43.52V256h32V96c0-54.72-89.44-96-208-96s-208,41.28-208,96v320
				c0,54.72,89.44,96,208,96c27.855,0.112,55.658-2.406,83.04-7.52l-6.08-32C277.922,477.4,252.155,479.918,226.322,480z
				 M226.322,32c100.8,0,176,33.76,176,64s-75.2,64-176,64s-176-33.76-176-64S125.522,32,226.322,32z"/>
			<path d="M437.042,412c24.385-36.844,14.284-86.48-22.56-110.865c-36.844-24.385-86.48-14.284-110.865,22.56
				s-14.284,86.48,22.56,110.865c26.769,17.717,61.536,17.717,88.305,0l56.64,56.64l22.56-22.56L437.042,412z M370.322,416
				c-26.51,0-48-21.49-48-48c0-26.51,21.49-48,48-48c26.51,0,48,21.49,48,48C418.322,394.51,396.832,416,370.322,416z"/>
		</g>
	</g>
</g>
<g>
</g>
<g>
</g>
<g>
</g>
<g>
</g>
<g>
</g>
<g>
</g>
<g>
</g>
<g>
</g>
<g>
</g>
<g>
</g>
<g>
</g>
<g>
</g>
<g>
</g>
<g>
</g>
<g>
</g>
</svg>
