<svg id="Layer_1" enable-background="new 0 0 512.649 512.649" height="512" viewBox="0 0 512.649 512.649" width="512" xmlns="http://www.w3.org/2000/svg"><g><path d="m402.32 30.002h90.004v114.325h-90.004z" fill="#f85b6e"/><path d="m402.32 30.002h90.004v114.325h-90.004z" fill="#e63950"/><path d="m402.32 129.991h90.004v98.66h-90.004z" fill="#ffde46"/><path d="m402.32 129.991h90.004v98.66h-90.004z" fill="#febf01"/><path d="m72.32 0c-28.67 0-51.994 23.325-51.994 51.995v408.66c0 28.67 23.324 51.995 51.994 51.995h38.01v-512.65z" fill="#abe233"/><path d="m80.33 0h351.99v512.649h-351.99z" fill="#56c125"/><path d="m256.322 0h175.998v512.649h-175.998z" fill="#019a5a"/><path d="m256.322 63.918c-39.868 0-72.302 32.435-72.302 72.303 0 45.358 56.518 91.641 62.962 96.769l9.34 7.432 9.34-7.432c6.444-5.128 62.963-51.411 62.963-96.769 0-39.867-32.435-72.303-72.303-72.303z" fill="#e63950"/><path d="m328.625 136.221c0-39.868-32.435-72.303-72.303-72.303v176.503l9.34-7.432c6.444-5.127 62.963-51.41 62.963-96.768z" fill="#ae2538"/><g><path d="m340.655 452.324h-30v-21.668c0-11.579-9.42-21-21-21h-78.667c-28.121 0-50.999-22.878-50.999-50.999s22.878-51 50.999-51h9.335c11.579 0 20.999-9.42 20.999-21v-17.334h30v17.334c0 28.121-22.878 51-50.999 51h-9.335c-11.579 0-20.999 9.42-20.999 21s9.42 20.999 20.999 20.999h78.667c28.121 0 51 22.878 51 51z" fill="#febf01"/></g><g><path d="m256.322 154.398c-10.098 0-18.313-8.215-18.313-18.313s8.215-18.313 18.313-18.313 18.314 8.215 18.314 18.313-8.216 18.313-18.314 18.313z" fill="#edf7fc"/></g><path d="m289.656 379.657h-33.333v30h33.333c11.579 0 21 9.42 21 21v21.668h30v-21.668c-.001-28.122-22.879-51-51-51z" fill="#fe9100"/><path d="m271.322 286.659v-17.334h-15v53.423c9.261-9.239 15-22.006 15-36.089z" fill="#fe9100"/><path d="m256.322 117.771v36.627c10.098 0 18.314-8.215 18.314-18.313s-8.216-18.314-18.314-18.314z" fill="#cce5ff"/></g></svg>