<svg height="472pt" viewBox="-4 0 472 472.8" width="472pt" xmlns="http://www.w3.org/2000/svg"><path d="m152.398438 456.800781h160v16h-160zm0 0" fill="#f4b12a"/><path d="m368.398438 136.800781c0-75.199219-60.796876-136-135.199219-136.800781-75.199219 0-136 60.800781-136.800781 135.199219 0 22.402343 5.601562 44.800781 16 64.800781l120 216 120-216c10.402343-19.199219 16-40.800781 16-63.199219zm0 0" fill="#e23333"/><path d="m328.398438 136.800781c0 53.019531-42.980469 96-96 96-53.019532 0-96-42.980469-96-96s42.980468-96 96-96c53.019531 0 96 42.980469 96 96zm0 0" fill="#e9e9e9"/><g fill="#d6d7d8"><path d="m456.398438 176.800781h-16v-32c0-4.800781-3.199219-8-8-8h-40v-16h40c13.601562 0 24 10.398438 24 24zm0 0"/><path d="m440.398438 368.800781h-56c-13.597657 0-24-10.402343-24-24v-24c0-4.800781-3.199219-8-8-8h-24v-16h24c13.601562 0 24 10.398438 24 24v24c0 4.800781 3.203124 8 8 8h56zm0 0"/><path d="m440.398438 288.800781h-16v-40c0-4.800781-3.199219-8-8-8h-40v-16h40c13.601562 0 24 10.398438 24 24zm0 0"/><path d="m416.398438 432.800781h-120c-13.597657 0-24-10.402343-24-24v-16h16v16c0 4.800781 3.203124 8 8 8h120zm0 0"/></g><path d="m440.398438 424.800781c0 8.835938-7.160157 16-16 16-8.835938 0-16-7.164062-16-16 0-8.835937 7.164062-16 16-16 8.839843 0 16 7.164063 16 16zm0 0" fill="#b4b4b5"/><path d="m464.398438 360.800781c0 8.835938-7.160157 16-16 16-8.835938 0-16-7.164062-16-16 0-8.835937 7.164062-16 16-16 8.839843 0 16 7.164063 16 16zm0 0" fill="#b4b4b5"/><path d="m448.398438 296.800781c0 8.835938-7.160157 16-16 16-8.835938 0-16-7.164062-16-16 0-8.835937 7.164062-16 16-16 8.839843 0 16 7.164063 16 16zm0 0" fill="#b4b4b5"/><path d="m432.398438 96.800781h-40v-16h40c4.800781 0 8-3.199219 8-8v-48h16v48c0 13.597657-10.398438 24-24 24zm0 0" fill="#d6d7d8"/><path d="m464.398438 16.800781c0 8.835938-7.160157 16-16 16-8.835938 0-16-7.164062-16-16 0-8.835937 7.164062-16 16-16 8.839843 0 16 7.164063 16 16zm0 0" fill="#b4b4b5"/><path d="m464.398438 184.800781c0 8.835938-7.160157 16-16 16-8.835938 0-16-7.164062-16-16 0-8.835937 7.164062-16 16-16 8.839843 0 16 7.164063 16 16zm0 0" fill="#b4b4b5"/><path d="m24.398438 168.800781h-16v-32c0-13.601562 10.402343-24 24-24h40v16h-40c-4.796876 0-8 3.199219-8 8zm0 0" fill="#d6d7d8"/><path d="m80.398438 368.800781h-56v-16h56c4.800781 0 8-3.199219 8-8v-24c0-13.601562 10.402343-24 24-24h24v16h-24c-4.796876 0-8 3.199219-8 8v24c0 13.597657-10.398438 24-24 24zm0 0" fill="#d6d7d8"/><path d="m40.398438 288.800781h-16v-48c0-13.601562 10.402343-24 24-24h40v16h-40c-4.796876 0-8 3.199219-8 8zm0 0" fill="#d6d7d8"/><path d="m168.398438 432.800781h-120v-16h120c4.800781 0 8-3.199219 8-8v-16h16v16c0 13.597657-10.398438 24-24 24zm0 0" fill="#d6d7d8"/><path d="m56.398438 424.800781c0 8.835938-7.160157 16-16 16-8.835938 0-16-7.164062-16-16 0-8.835937 7.164062-16 16-16 8.839843 0 16 7.164063 16 16zm0 0" fill="#b4b4b5"/><path d="m32.398438 360.800781c0 8.835938-7.160157 16-16 16-8.835938 0-16-7.164062-16-16 0-8.835937 7.164062-16 16-16 8.839843 0 16 7.164063 16 16zm0 0" fill="#b4b4b5"/><path d="m48.398438 296.800781c0 8.835938-7.160157 16-16 16-8.835938 0-16-7.164062-16-16 0-8.835937 7.164062-16 16-16 8.839843 0 16 7.164063 16 16zm0 0" fill="#b4b4b5"/><path d="m72.398438 96.800781h-40c-13.597657 0-24-10.402343-24-24v-48h16v48c0 4.800781 3.203124 8 8 8h40zm0 0" fill="#d6d7d8"/><path d="m32.398438 16.800781c0 8.835938-7.160157 16-16 16-8.835938 0-16-7.164062-16-16 0-8.835937 7.164062-16 16-16 8.839843 0 16 7.164063 16 16zm0 0" fill="#b4b4b5"/><path d="m32.398438 176.800781c0 8.835938-7.160157 16-16 16-8.835938 0-16-7.164062-16-16 0-8.835937 7.164062-16 16-16 8.839843 0 16 7.164063 16 16zm0 0" fill="#b4b4b5"/></svg>