<svg width="440" height="309" viewBox="0 0 440 309" fill="none" xmlns="http://www.w3.org/2000/svg">
<path d="M282.734 5.46323C284.243 5.46323 285.467 4.24024 285.467 2.73162C285.467 1.22299 284.243 0 282.734 0C281.224 0 280 1.22299 280 2.73162C280 4.24024 281.224 5.46323 282.734 5.46323Z" fill="white" fill-opacity="0.26"/>
<path d="M296.57 5.46323C298.08 5.46323 299.304 4.24024 299.304 2.73162C299.304 1.22299 298.08 0 296.57 0C295.061 0 293.837 1.22299 293.837 2.73162C293.837 4.24024 295.061 5.46323 296.57 5.46323Z" fill="white" fill-opacity="0.26"/>
<path d="M310.408 5.46323C311.917 5.46323 313.141 4.24024 313.141 2.73162C313.141 1.22299 311.917 0 310.408 0C308.898 0 307.674 1.22299 307.674 2.73162C307.674 4.24024 308.898 5.46323 310.408 5.46323Z" fill="white" fill-opacity="0.26"/>
<path d="M324.245 5.46323C325.754 5.46323 326.978 4.24024 326.978 2.73162C326.978 1.22299 325.754 0 324.245 0C322.735 0 321.511 1.22299 321.511 2.73162C321.511 4.24024 322.735 5.46323 324.245 5.46323Z" fill="white" fill-opacity="0.26"/>
<path d="M338.082 5.46323C339.591 5.46323 340.815 4.24024 340.815 2.73162C340.815 1.22299 339.591 0 338.082 0C336.572 0 335.348 1.22299 335.348 2.73162C335.348 4.24024 336.572 5.46323 338.082 5.46323Z" fill="white" fill-opacity="0.26"/>
<path d="M351.919 5.46323C353.428 5.46323 354.652 4.24024 354.652 2.73162C354.652 1.22299 353.428 0 351.919 0C350.409 0 349.185 1.22299 349.185 2.73162C349.185 4.24024 350.409 5.46323 351.919 5.46323Z" fill="white" fill-opacity="0.26"/>
<path d="M365.756 5.46323C367.265 5.46323 368.489 4.24024 368.489 2.73162C368.489 1.22299 367.265 0 365.756 0C364.246 0 363.022 1.22299 363.022 2.73162C363.022 4.24024 364.246 5.46323 365.756 5.46323Z" fill="white" fill-opacity="0.26"/>
<path d="M379.593 5.46323C381.102 5.46323 382.326 4.24024 382.326 2.73162C382.326 1.22299 381.102 0 379.593 0C378.083 0 376.859 1.22299 376.859 2.73162C376.859 4.24024 378.083 5.46323 379.593 5.46323Z" fill="white" fill-opacity="0.26"/>
<path d="M393.43 5.46323C394.939 5.46323 396.163 4.24024 396.163 2.73162C396.163 1.22299 394.939 0 393.43 0C391.92 0 390.696 1.22299 390.696 2.73162C390.696 4.24024 391.92 5.46323 393.43 5.46323Z" fill="white" fill-opacity="0.26"/>
<path d="M407.267 5.46323C408.776 5.46323 410 4.24024 410 2.73162C410 1.22299 408.776 0 407.267 0C405.757 0 404.533 1.22299 404.533 2.73162C404.533 4.24024 405.757 5.46323 407.267 5.46323Z" fill="white" fill-opacity="0.26"/>
<path d="M282.734 19.4642C284.243 19.4642 285.467 18.2412 285.467 16.7326C285.467 15.2239 284.243 14.0009 282.734 14.0009C281.224 14.0009 280 15.2239 280 16.7326C280 18.2412 281.224 19.4642 282.734 19.4642Z" fill="white" fill-opacity="0.26"/>
<path d="M296.57 19.4642C298.08 19.4642 299.304 18.2412 299.304 16.7326C299.304 15.2239 298.08 14.0009 296.57 14.0009C295.061 14.0009 293.837 15.2239 293.837 16.7326C293.837 18.2412 295.061 19.4642 296.57 19.4642Z" fill="white" fill-opacity="0.26"/>
<path d="M310.408 19.4642C311.917 19.4642 313.141 18.2412 313.141 16.7326C313.141 15.2239 311.917 14.0009 310.408 14.0009C308.898 14.0009 307.674 15.2239 307.674 16.7326C307.674 18.2412 308.898 19.4642 310.408 19.4642Z" fill="white" fill-opacity="0.26"/>
<path d="M324.245 19.4642C325.754 19.4642 326.978 18.2412 326.978 16.7326C326.978 15.2239 325.754 14.0009 324.245 14.0009C322.735 14.0009 321.511 15.2239 321.511 16.7326C321.511 18.2412 322.735 19.4642 324.245 19.4642Z" fill="#6C63FF"/>
<path d="M338.082 19.4642C339.591 19.4642 340.815 18.2412 340.815 16.7326C340.815 15.2239 339.591 14.0009 338.082 14.0009C336.572 14.0009 335.348 15.2239 335.348 16.7326C335.348 18.2412 336.572 19.4642 338.082 19.4642Z" fill="white" fill-opacity="0.26"/>
<path d="M351.919 19.4642C353.428 19.4642 354.652 18.2412 354.652 16.7326C354.652 15.2239 353.428 14.0009 351.919 14.0009C350.409 14.0009 349.185 15.2239 349.185 16.7326C349.185 18.2412 350.409 19.4642 351.919 19.4642Z" fill="white" fill-opacity="0.26"/>
<path d="M365.756 19.4642C367.265 19.4642 368.489 18.2412 368.489 16.7326C368.489 15.2239 367.265 14.0009 365.756 14.0009C364.246 14.0009 363.022 15.2239 363.022 16.7326C363.022 18.2412 364.246 19.4642 365.756 19.4642Z" fill="white" fill-opacity="0.26"/>
<path d="M379.593 19.4642C381.102 19.4642 382.326 18.2412 382.326 16.7326C382.326 15.2239 381.102 14.0009 379.593 14.0009C378.083 14.0009 376.859 15.2239 376.859 16.7326C376.859 18.2412 378.083 19.4642 379.593 19.4642Z" fill="white" fill-opacity="0.26"/>
<path d="M393.43 19.4642C394.939 19.4642 396.163 18.2412 396.163 16.7326C396.163 15.2239 394.939 14.0009 393.43 14.0009C391.92 14.0009 390.696 15.2239 390.696 16.7326C390.696 18.2412 391.92 19.4642 393.43 19.4642Z" fill="white" fill-opacity="0.26"/>
<path d="M407.267 19.4642C408.776 19.4642 410 18.2412 410 16.7326C410 15.2239 408.776 14.0009 407.267 14.0009C405.757 14.0009 404.533 15.2239 404.533 16.7326C404.533 18.2412 405.757 19.4642 407.267 19.4642Z" fill="white" fill-opacity="0.26"/>
<path d="M282.734 33.4652C284.243 33.4652 285.467 32.2422 285.467 30.7336C285.467 29.2249 284.243 28.002 282.734 28.002C281.224 28.002 280 29.2249 280 30.7336C280 32.2422 281.224 33.4652 282.734 33.4652Z" fill="white" fill-opacity="0.26"/>
<path d="M296.57 33.4652C298.08 33.4652 299.304 32.2422 299.304 30.7336C299.304 29.2249 298.08 28.002 296.57 28.002C295.061 28.002 293.837 29.2249 293.837 30.7336C293.837 32.2422 295.061 33.4652 296.57 33.4652Z" fill="white" fill-opacity="0.26"/>
<path d="M310.408 33.4652C311.917 33.4652 313.141 32.2422 313.141 30.7336C313.141 29.2249 311.917 28.002 310.408 28.002C308.898 28.002 307.674 29.2249 307.674 30.7336C307.674 32.2422 308.898 33.4652 310.408 33.4652Z" fill="white" fill-opacity="0.26"/>
<path d="M324.245 33.4652C325.754 33.4652 326.978 32.2422 326.978 30.7336C326.978 29.2249 325.754 28.002 324.245 28.002C322.735 28.002 321.511 29.2249 321.511 30.7336C321.511 32.2422 322.735 33.4652 324.245 33.4652Z" fill="white" fill-opacity="0.26"/>
<path d="M338.082 33.4652C339.591 33.4652 340.815 32.2422 340.815 30.7336C340.815 29.2249 339.591 28.002 338.082 28.002C336.572 28.002 335.348 29.2249 335.348 30.7336C335.348 32.2422 336.572 33.4652 338.082 33.4652Z" fill="white" fill-opacity="0.26"/>
<path d="M351.919 33.4652C353.428 33.4652 354.652 32.2422 354.652 30.7336C354.652 29.2249 353.428 28.002 351.919 28.002C350.409 28.002 349.185 29.2249 349.185 30.7336C349.185 32.2422 350.409 33.4652 351.919 33.4652Z" fill="white" fill-opacity="0.26"/>
<path d="M365.756 33.4652C367.265 33.4652 368.489 32.2422 368.489 30.7336C368.489 29.2249 367.265 28.002 365.756 28.002C364.246 28.002 363.022 29.2249 363.022 30.7336C363.022 32.2422 364.246 33.4652 365.756 33.4652Z" fill="white" fill-opacity="0.26"/>
<path d="M379.593 33.4652C381.102 33.4652 382.326 32.2422 382.326 30.7336C382.326 29.2249 381.102 28.002 379.593 28.002C378.083 28.002 376.859 29.2249 376.859 30.7336C376.859 32.2422 378.083 33.4652 379.593 33.4652Z" fill="white" fill-opacity="0.26"/>
<path d="M393.43 33.4652C394.939 33.4652 396.163 32.2422 396.163 30.7336C396.163 29.2249 394.939 28.002 393.43 28.002C391.92 28.002 390.696 29.2249 390.696 30.7336C390.696 32.2422 391.92 33.4652 393.43 33.4652Z" fill="white" fill-opacity="0.26"/>
<path d="M407.267 33.4652C408.776 33.4652 410 32.2422 410 30.7336C410 29.2249 408.776 28.002 407.267 28.002C405.757 28.002 404.533 29.2249 404.533 30.7336C404.533 32.2422 405.757 33.4652 407.267 33.4652Z" fill="white" fill-opacity="0.26"/>
<path d="M282.734 47.4661C284.243 47.4661 285.467 46.2431 285.467 44.7345C285.467 43.2259 284.243 42.0029 282.734 42.0029C281.224 42.0029 280 43.2259 280 44.7345C280 46.2431 281.224 47.4661 282.734 47.4661Z" fill="white" fill-opacity="0.26"/>
<path d="M296.57 47.4661C298.08 47.4661 299.304 46.2431 299.304 44.7345C299.304 43.2259 298.08 42.0029 296.57 42.0029C295.061 42.0029 293.837 43.2259 293.837 44.7345C293.837 46.2431 295.061 47.4661 296.57 47.4661Z" fill="white" fill-opacity="0.26"/>
<path d="M310.408 47.4661C311.917 47.4661 313.141 46.2431 313.141 44.7345C313.141 43.2259 311.917 42.0029 310.408 42.0029C308.898 42.0029 307.674 43.2259 307.674 44.7345C307.674 46.2431 308.898 47.4661 310.408 47.4661Z" fill="white" fill-opacity="0.26"/>
<path d="M324.245 47.4661C325.754 47.4661 326.978 46.2431 326.978 44.7345C326.978 43.2259 325.754 42.0029 324.245 42.0029C322.735 42.0029 321.511 43.2259 321.511 44.7345C321.511 46.2431 322.735 47.4661 324.245 47.4661Z" fill="white" fill-opacity="0.26"/>
<path d="M338.082 47.4661C339.591 47.4661 340.815 46.2431 340.815 44.7345C340.815 43.2259 339.591 42.0029 338.082 42.0029C336.572 42.0029 335.348 43.2259 335.348 44.7345C335.348 46.2431 336.572 47.4661 338.082 47.4661Z" fill="white" fill-opacity="0.26"/>
<path d="M351.919 47.4661C353.428 47.4661 354.652 46.2431 354.652 44.7345C354.652 43.2259 353.428 42.0029 351.919 42.0029C350.409 42.0029 349.185 43.2259 349.185 44.7345C349.185 46.2431 350.409 47.4661 351.919 47.4661Z" fill="white" fill-opacity="0.26"/>
<path d="M365.756 47.4661C367.265 47.4661 368.489 46.2431 368.489 44.7345C368.489 43.2259 367.265 42.0029 365.756 42.0029C364.246 42.0029 363.022 43.2259 363.022 44.7345C363.022 46.2431 364.246 47.4661 365.756 47.4661Z" fill="white" fill-opacity="0.26"/>
<path d="M379.593 47.4661C381.102 47.4661 382.326 46.2431 382.326 44.7345C382.326 43.2259 381.102 42.0029 379.593 42.0029C378.083 42.0029 376.859 43.2259 376.859 44.7345C376.859 46.2431 378.083 47.4661 379.593 47.4661Z" fill="white" fill-opacity="0.26"/>
<path d="M393.43 47.4661C394.939 47.4661 396.163 46.2431 396.163 44.7345C396.163 43.2259 394.939 42.0029 393.43 42.0029C391.92 42.0029 390.696 43.2259 390.696 44.7345C390.696 46.2431 391.92 47.4661 393.43 47.4661Z" fill="white" fill-opacity="0.26"/>
<path d="M407.267 47.4661C408.776 47.4661 410 46.2431 410 44.7345C410 43.2259 408.776 42.0029 407.267 42.0029C405.757 42.0029 404.533 43.2259 404.533 44.7345C404.533 46.2431 405.757 47.4661 407.267 47.4661Z" fill="white" fill-opacity="0.26"/>
<path d="M282.734 61.4671C284.243 61.4671 285.467 60.2441 285.467 58.7355C285.467 57.2268 284.243 56.0038 282.734 56.0038C281.224 56.0038 280 57.2268 280 58.7355C280 60.2441 281.224 61.4671 282.734 61.4671Z" fill="white" fill-opacity="0.26"/>
<path d="M296.57 61.4671C298.08 61.4671 299.304 60.2441 299.304 58.7355C299.304 57.2268 298.08 56.0038 296.57 56.0038C295.061 56.0038 293.837 57.2268 293.837 58.7355C293.837 60.2441 295.061 61.4671 296.57 61.4671Z" fill="#6C63FF"/>
<path d="M310.408 61.4671C311.917 61.4671 313.141 60.2441 313.141 58.7355C313.141 57.2268 311.917 56.0038 310.408 56.0038C308.898 56.0038 307.674 57.2268 307.674 58.7355C307.674 60.2441 308.898 61.4671 310.408 61.4671Z" fill="white" fill-opacity="0.26"/>
<path d="M324.245 61.4671C325.754 61.4671 326.978 60.2441 326.978 58.7355C326.978 57.2268 325.754 56.0038 324.245 56.0038C322.735 56.0038 321.511 57.2268 321.511 58.7355C321.511 60.2441 322.735 61.4671 324.245 61.4671Z" fill="white" fill-opacity="0.26"/>
<path d="M338.082 61.4671C339.591 61.4671 340.815 60.2441 340.815 58.7355C340.815 57.2268 339.591 56.0038 338.082 56.0038C336.572 56.0038 335.348 57.2268 335.348 58.7355C335.348 60.2441 336.572 61.4671 338.082 61.4671Z" fill="white" fill-opacity="0.26"/>
<path d="M351.919 61.4671C353.428 61.4671 354.652 60.2441 354.652 58.7355C354.652 57.2268 353.428 56.0038 351.919 56.0038C350.409 56.0038 349.185 57.2268 349.185 58.7355C349.185 60.2441 350.409 61.4671 351.919 61.4671Z" fill="white" fill-opacity="0.26"/>
<path d="M365.756 61.4671C367.265 61.4671 368.489 60.2441 368.489 58.7355C368.489 57.2268 367.265 56.0038 365.756 56.0038C364.246 56.0038 363.022 57.2268 363.022 58.7355C363.022 60.2441 364.246 61.4671 365.756 61.4671Z" fill="white" fill-opacity="0.26"/>
<path d="M379.593 61.4671C381.102 61.4671 382.326 60.2441 382.326 58.7355C382.326 57.2268 381.102 56.0038 379.593 56.0038C378.083 56.0038 376.859 57.2268 376.859 58.7355C376.859 60.2441 378.083 61.4671 379.593 61.4671Z" fill="white" fill-opacity="0.26"/>
<path d="M393.43 61.4671C394.939 61.4671 396.163 60.2441 396.163 58.7355C396.163 57.2268 394.939 56.0038 393.43 56.0038C391.92 56.0038 390.696 57.2268 390.696 58.7355C390.696 60.2441 391.92 61.4671 393.43 61.4671Z" fill="white" fill-opacity="0.26"/>
<path d="M407.267 61.4671C408.776 61.4671 410 60.2441 410 58.7355C410 57.2268 408.776 56.0038 407.267 56.0038C405.757 56.0038 404.533 57.2268 404.533 58.7355C404.533 60.2441 405.757 61.4671 407.267 61.4671Z" fill="white" fill-opacity="0.26"/>
<path d="M282.734 75.468C284.243 75.468 285.467 74.245 285.467 72.7364C285.467 71.2278 284.243 70.0048 282.734 70.0048C281.224 70.0048 280 71.2278 280 72.7364C280 74.245 281.224 75.468 282.734 75.468Z" fill="white" fill-opacity="0.26"/>
<path d="M296.57 75.468C298.08 75.468 299.304 74.245 299.304 72.7364C299.304 71.2278 298.08 70.0048 296.57 70.0048C295.061 70.0048 293.837 71.2278 293.837 72.7364C293.837 74.245 295.061 75.468 296.57 75.468Z" fill="white" fill-opacity="0.26"/>
<path d="M310.408 75.468C311.917 75.468 313.141 74.245 313.141 72.7364C313.141 71.2278 311.917 70.0048 310.408 70.0048C308.898 70.0048 307.674 71.2278 307.674 72.7364C307.674 74.245 308.898 75.468 310.408 75.468Z" fill="white" fill-opacity="0.26"/>
<path d="M324.245 75.468C325.754 75.468 326.978 74.245 326.978 72.7364C326.978 71.2278 325.754 70.0048 324.245 70.0048C322.735 70.0048 321.511 71.2278 321.511 72.7364C321.511 74.245 322.735 75.468 324.245 75.468Z" fill="white" fill-opacity="0.26"/>
<path d="M338.082 75.468C339.591 75.468 340.815 74.245 340.815 72.7364C340.815 71.2278 339.591 70.0048 338.082 70.0048C336.572 70.0048 335.348 71.2278 335.348 72.7364C335.348 74.245 336.572 75.468 338.082 75.468Z" fill="white" fill-opacity="0.26"/>
<path d="M351.919 75.468C353.428 75.468 354.652 74.245 354.652 72.7364C354.652 71.2278 353.428 70.0048 351.919 70.0048C350.409 70.0048 349.185 71.2278 349.185 72.7364C349.185 74.245 350.409 75.468 351.919 75.468Z" fill="white" fill-opacity="0.26"/>
<path d="M365.756 75.468C367.265 75.468 368.489 74.245 368.489 72.7364C368.489 71.2278 367.265 70.0048 365.756 70.0048C364.246 70.0048 363.022 71.2278 363.022 72.7364C363.022 74.245 364.246 75.468 365.756 75.468Z" fill="white" fill-opacity="0.26"/>
<path d="M379.593 75.468C381.102 75.468 382.326 74.245 382.326 72.7364C382.326 71.2278 381.102 70.0048 379.593 70.0048C378.083 70.0048 376.859 71.2278 376.859 72.7364C376.859 74.245 378.083 75.468 379.593 75.468Z" fill="white" fill-opacity="0.26"/>
<path d="M393.43 75.468C394.939 75.468 396.163 74.245 396.163 72.7364C396.163 71.2278 394.939 70.0048 393.43 70.0048C391.92 70.0048 390.696 71.2278 390.696 72.7364C390.696 74.245 391.92 75.468 393.43 75.468Z" fill="white" fill-opacity="0.26"/>
<path d="M407.267 75.468C408.776 75.468 410 74.245 410 72.7364C410 71.2278 408.776 70.0048 407.267 70.0048C405.757 70.0048 404.533 71.2278 404.533 72.7364C404.533 74.245 405.757 75.468 407.267 75.468Z" fill="white" fill-opacity="0.26"/>
<path d="M282.734 89.469C284.243 89.469 285.467 88.246 285.467 86.7374C285.467 85.2287 284.243 84.0057 282.734 84.0057C281.224 84.0057 280 85.2287 280 86.7374C280 88.246 281.224 89.469 282.734 89.469Z" fill="white" fill-opacity="0.26"/>
<path d="M296.57 89.469C298.08 89.469 299.304 88.246 299.304 86.7374C299.304 85.2287 298.08 84.0057 296.57 84.0057C295.061 84.0057 293.837 85.2287 293.837 86.7374C293.837 88.246 295.061 89.469 296.57 89.469Z" fill="white" fill-opacity="0.26"/>
<path d="M310.408 89.469C311.917 89.469 313.141 88.246 313.141 86.7374C313.141 85.2287 311.917 84.0057 310.408 84.0057C308.898 84.0057 307.674 85.2287 307.674 86.7374C307.674 88.246 308.898 89.469 310.408 89.469Z" fill="#6C63FF"/>
<path d="M324.245 89.469C325.754 89.469 326.978 88.246 326.978 86.7374C326.978 85.2287 325.754 84.0057 324.245 84.0057C322.735 84.0057 321.511 85.2287 321.511 86.7374C321.511 88.246 322.735 89.469 324.245 89.469Z" fill="white" fill-opacity="0.26"/>
<path d="M338.082 89.469C339.591 89.469 340.815 88.246 340.815 86.7374C340.815 85.2287 339.591 84.0057 338.082 84.0057C336.572 84.0057 335.348 85.2287 335.348 86.7374C335.348 88.246 336.572 89.469 338.082 89.469Z" fill="white" fill-opacity="0.26"/>
<path d="M351.919 89.469C353.428 89.469 354.652 88.246 354.652 86.7374C354.652 85.2287 353.428 84.0057 351.919 84.0057C350.409 84.0057 349.185 85.2287 349.185 86.7374C349.185 88.246 350.409 89.469 351.919 89.469Z" fill="white" fill-opacity="0.26"/>
<path d="M365.756 89.469C367.265 89.469 368.489 88.246 368.489 86.7374C368.489 85.2287 367.265 84.0057 365.756 84.0057C364.246 84.0057 363.022 85.2287 363.022 86.7374C363.022 88.246 364.246 89.469 365.756 89.469Z" fill="white" fill-opacity="0.26"/>
<path d="M379.593 89.469C381.102 89.469 382.326 88.246 382.326 86.7374C382.326 85.2287 381.102 84.0057 379.593 84.0057C378.083 84.0057 376.859 85.2287 376.859 86.7374C376.859 88.246 378.083 89.469 379.593 89.469Z" fill="white" fill-opacity="0.26"/>
<path d="M393.43 89.469C394.939 89.469 396.163 88.246 396.163 86.7374C396.163 85.2287 394.939 84.0057 393.43 84.0057C391.92 84.0057 390.696 85.2287 390.696 86.7374C390.696 88.246 391.92 89.469 393.43 89.469Z" fill="white" fill-opacity="0.26"/>
<path d="M407.267 89.469C408.776 89.469 410 88.246 410 86.7374C410 85.2287 408.776 84.0057 407.267 84.0057C405.757 84.0057 404.533 85.2287 404.533 86.7374C404.533 88.246 405.757 89.469 407.267 89.469Z" fill="white" fill-opacity="0.26"/>
<path d="M282.734 103.47C284.243 103.47 285.467 102.247 285.467 100.738C285.467 99.2297 284.243 98.0067 282.734 98.0067C281.224 98.0067 280 99.2297 280 100.738C280 102.247 281.224 103.47 282.734 103.47Z" fill="white" fill-opacity="0.26"/>
<path d="M296.57 103.47C298.08 103.47 299.304 102.247 299.304 100.738C299.304 99.2297 298.08 98.0067 296.57 98.0067C295.061 98.0067 293.837 99.2297 293.837 100.738C293.837 102.247 295.061 103.47 296.57 103.47Z" fill="white" fill-opacity="0.26"/>
<path d="M310.408 103.47C311.917 103.47 313.141 102.247 313.141 100.738C313.141 99.2297 311.917 98.0067 310.408 98.0067C308.898 98.0067 307.674 99.2297 307.674 100.738C307.674 102.247 308.898 103.47 310.408 103.47Z" fill="white" fill-opacity="0.26"/>
<path d="M324.245 103.47C325.754 103.47 326.978 102.247 326.978 100.738C326.978 99.2297 325.754 98.0067 324.245 98.0067C322.735 98.0067 321.511 99.2297 321.511 100.738C321.511 102.247 322.735 103.47 324.245 103.47Z" fill="white" fill-opacity="0.26"/>
<path d="M338.082 103.47C339.591 103.47 340.815 102.247 340.815 100.738C340.815 99.2297 339.591 98.0067 338.082 98.0067C336.572 98.0067 335.348 99.2297 335.348 100.738C335.348 102.247 336.572 103.47 338.082 103.47Z" fill="white" fill-opacity="0.26"/>
<path d="M351.919 103.47C353.428 103.47 354.652 102.247 354.652 100.738C354.652 99.2297 353.428 98.0067 351.919 98.0067C350.409 98.0067 349.185 99.2297 349.185 100.738C349.185 102.247 350.409 103.47 351.919 103.47Z" fill="white" fill-opacity="0.26"/>
<path d="M365.756 103.47C367.265 103.47 368.489 102.247 368.489 100.738C368.489 99.2297 367.265 98.0067 365.756 98.0067C364.246 98.0067 363.022 99.2297 363.022 100.738C363.022 102.247 364.246 103.47 365.756 103.47Z" fill="white" fill-opacity="0.26"/>
<path d="M379.593 103.47C381.102 103.47 382.326 102.247 382.326 100.738C382.326 99.2297 381.102 98.0067 379.593 98.0067C378.083 98.0067 376.859 99.2297 376.859 100.738C376.859 102.247 378.083 103.47 379.593 103.47Z" fill="white" fill-opacity="0.26"/>
<path d="M393.43 103.47C394.939 103.47 396.163 102.247 396.163 100.738C396.163 99.2297 394.939 98.0067 393.43 98.0067C391.92 98.0067 390.696 99.2297 390.696 100.738C390.696 102.247 391.92 103.47 393.43 103.47Z" fill="white" fill-opacity="0.26"/>
<path d="M407.267 103.47C408.776 103.47 410 102.247 410 100.738C410 99.2297 408.776 98.0067 407.267 98.0067C405.757 98.0067 404.533 99.2297 404.533 100.738C404.533 102.247 405.757 103.47 407.267 103.47Z" fill="white" fill-opacity="0.26"/>
<path d="M282.734 117.471C284.243 117.471 285.467 116.248 285.467 114.739C285.467 113.231 284.243 112.008 282.734 112.008C281.224 112.008 280 113.231 280 114.739C280 116.248 281.224 117.471 282.734 117.471Z" fill="white" fill-opacity="0.26"/>
<path d="M296.57 117.471C298.08 117.471 299.304 116.248 299.304 114.739C299.304 113.231 298.08 112.008 296.57 112.008C295.061 112.008 293.837 113.231 293.837 114.739C293.837 116.248 295.061 117.471 296.57 117.471Z" fill="white" fill-opacity="0.26"/>
<path d="M310.408 117.471C311.917 117.471 313.141 116.248 313.141 114.739C313.141 113.231 311.917 112.008 310.408 112.008C308.898 112.008 307.674 113.231 307.674 114.739C307.674 116.248 308.898 117.471 310.408 117.471Z" fill="white" fill-opacity="0.26"/>
<path d="M324.245 117.471C325.754 117.471 326.978 116.248 326.978 114.739C326.978 113.231 325.754 112.008 324.245 112.008C322.735 112.008 321.511 113.231 321.511 114.739C321.511 116.248 322.735 117.471 324.245 117.471Z" fill="white" fill-opacity="0.26"/>
<path d="M338.082 117.471C339.591 117.471 340.815 116.248 340.815 114.739C340.815 113.231 339.591 112.008 338.082 112.008C336.572 112.008 335.348 113.231 335.348 114.739C335.348 116.248 336.572 117.471 338.082 117.471Z" fill="white" fill-opacity="0.26"/>
<path d="M351.919 117.471C353.428 117.471 354.652 116.248 354.652 114.739C354.652 113.231 353.428 112.008 351.919 112.008C350.409 112.008 349.185 113.231 349.185 114.739C349.185 116.248 350.409 117.471 351.919 117.471Z" fill="white" fill-opacity="0.26"/>
<path d="M365.756 117.471C367.265 117.471 368.489 116.248 368.489 114.739C368.489 113.231 367.265 112.008 365.756 112.008C364.246 112.008 363.022 113.231 363.022 114.739C363.022 116.248 364.246 117.471 365.756 117.471Z" fill="white" fill-opacity="0.26"/>
<path d="M379.593 117.471C381.102 117.471 382.326 116.248 382.326 114.739C382.326 113.231 381.102 112.008 379.593 112.008C378.083 112.008 376.859 113.231 376.859 114.739C376.859 116.248 378.083 117.471 379.593 117.471Z" fill="white" fill-opacity="0.26"/>
<path d="M393.43 117.471C394.939 117.471 396.163 116.248 396.163 114.739C396.163 113.231 394.939 112.008 393.43 112.008C391.92 112.008 390.696 113.231 390.696 114.739C390.696 116.248 391.92 117.471 393.43 117.471Z" fill="white" fill-opacity="0.26"/>
<path d="M407.267 117.471C408.776 117.471 410 116.248 410 114.739C410 113.231 408.776 112.008 407.267 112.008C405.757 112.008 404.533 113.231 404.533 114.739C404.533 116.248 405.757 117.471 407.267 117.471Z" fill="white" fill-opacity="0.26"/>
<path d="M282.734 131.472C284.243 131.472 285.467 130.249 285.467 128.74C285.467 127.232 284.243 126.009 282.734 126.009C281.224 126.009 280 127.232 280 128.74C280 130.249 281.224 131.472 282.734 131.472Z" fill="white" fill-opacity="0.26"/>
<path d="M296.57 131.472C298.08 131.472 299.304 130.249 299.304 128.74C299.304 127.232 298.08 126.009 296.57 126.009C295.061 126.009 293.837 127.232 293.837 128.74C293.837 130.249 295.061 131.472 296.57 131.472Z" fill="white" fill-opacity="0.26"/>
<path d="M310.408 131.472C311.917 131.472 313.141 130.249 313.141 128.74C313.141 127.232 311.917 126.009 310.408 126.009C308.898 126.009 307.674 127.232 307.674 128.74C307.674 130.249 308.898 131.472 310.408 131.472Z" fill="white" fill-opacity="0.26"/>
<path d="M324.245 131.472C325.754 131.472 326.978 130.249 326.978 128.74C326.978 127.232 325.754 126.009 324.245 126.009C322.735 126.009 321.511 127.232 321.511 128.74C321.511 130.249 322.735 131.472 324.245 131.472Z" fill="white" fill-opacity="0.26"/>
<path d="M338.082 131.472C339.591 131.472 340.815 130.249 340.815 128.74C340.815 127.232 339.591 126.009 338.082 126.009C336.572 126.009 335.348 127.232 335.348 128.74C335.348 130.249 336.572 131.472 338.082 131.472Z" fill="white" fill-opacity="0.26"/>
<path d="M351.919 131.472C353.428 131.472 354.652 130.249 354.652 128.74C354.652 127.232 353.428 126.009 351.919 126.009C350.409 126.009 349.185 127.232 349.185 128.74C349.185 130.249 350.409 131.472 351.919 131.472Z" fill="white" fill-opacity="0.26"/>
<path d="M365.756 131.472C367.265 131.472 368.489 130.249 368.489 128.74C368.489 127.232 367.265 126.009 365.756 126.009C364.246 126.009 363.022 127.232 363.022 128.74C363.022 130.249 364.246 131.472 365.756 131.472Z" fill="white" fill-opacity="0.26"/>
<path d="M379.593 131.472C381.102 131.472 382.326 130.249 382.326 128.74C382.326 127.232 381.102 126.009 379.593 126.009C378.083 126.009 376.859 127.232 376.859 128.74C376.859 130.249 378.083 131.472 379.593 131.472Z" fill="white" fill-opacity="0.26"/>
<path d="M393.43 131.472C394.939 131.472 396.163 130.249 396.163 128.74C396.163 127.232 394.939 126.009 393.43 126.009C391.92 126.009 390.696 127.232 390.696 128.74C390.696 130.249 391.92 131.472 393.43 131.472Z" fill="white" fill-opacity="0.26"/>
<path d="M407.267 131.472C408.776 131.472 410 130.249 410 128.74C410 127.232 408.776 126.009 407.267 126.009C405.757 126.009 404.533 127.232 404.533 128.74C404.533 130.249 405.757 131.472 407.267 131.472Z" fill="white" fill-opacity="0.26"/>
<path d="M143.986 23.5412H41.5676C38.4031 23.5412 35.8378 26.1116 35.8378 29.2823V234.529C35.8378 237.7 38.4031 240.271 41.5676 240.271H143.986C147.151 240.271 149.716 237.7 149.716 234.529V29.2823C149.716 26.1116 147.151 23.5412 143.986 23.5412Z" fill="#F2F2F2"/>
<path d="M92.4189 226.635C98.3522 226.635 103.162 221.816 103.162 215.871C103.162 209.925 98.3522 205.106 92.4189 205.106C86.4856 205.106 81.6757 209.925 81.6757 215.871C81.6757 221.816 86.4856 226.635 92.4189 226.635Z" fill="white"/>
<path d="M83.1081 37.8941C83.8992 37.8941 84.5405 37.2515 84.5405 36.4588C84.5405 35.6661 83.8992 35.0235 83.1081 35.0235C82.317 35.0235 81.6757 35.6661 81.6757 36.4588C81.6757 37.2515 82.317 37.8941 83.1081 37.8941Z" fill="white"/>
<path d="M101.73 35.0235H89.554C88.7629 35.0235 88.1216 35.6661 88.1216 36.4588C88.1216 37.2515 88.7629 37.8941 89.554 37.8941H101.73C102.521 37.8941 103.162 37.2515 103.162 36.4588C103.162 35.6661 102.521 35.0235 101.73 35.0235Z" fill="white"/>
<path d="M136.824 43.6353H48.7297C47.1475 43.6353 45.8649 44.9205 45.8649 46.5059V79.5176C45.8649 81.103 47.1475 82.3882 48.7297 82.3882H136.824C138.407 82.3882 139.689 81.103 139.689 79.5176V46.5059C139.689 44.9205 138.407 43.6353 136.824 43.6353Z" fill="white"/>
<path d="M123.932 55.2612H75.946C74.7593 55.2612 73.7973 56.2251 73.7973 57.4141V58.9212C73.7973 60.1102 74.7593 61.0741 75.946 61.0741H123.932C125.119 61.0741 126.081 60.1102 126.081 58.9212V57.4141C126.081 56.2251 125.119 55.2612 123.932 55.2612Z" fill="#D6D9F8"/>
<path d="M106.743 64.9494H75.946C74.7593 64.9494 73.7973 65.9133 73.7973 67.1024V68.6094C73.7973 69.7985 74.7593 70.7624 75.946 70.7624H106.743C107.93 70.7624 108.892 69.7985 108.892 68.6094V67.1024C108.892 65.9133 107.93 64.9494 106.743 64.9494Z" fill="#D6D9F8"/>
<path d="M60.9054 71.6235C65.6521 71.6235 69.5 67.7679 69.5 63.0118C69.5 58.2556 65.6521 54.4 60.9054 54.4C56.1587 54.4 52.3108 58.2556 52.3108 63.0118C52.3108 67.7679 56.1587 71.6235 60.9054 71.6235Z" fill="#4D5CED"/>
<path d="M136.824 88.1294H48.7297C47.1475 88.1294 45.8649 89.4146 45.8649 91V115.4C45.8649 116.985 47.1475 118.271 48.7297 118.271H136.824C138.407 118.271 139.689 116.985 139.689 115.4V91C139.689 89.4146 138.407 88.1294 136.824 88.1294Z" fill="white"/>
<path d="M123.932 97.1718H75.946C74.7593 97.1718 73.7973 98.1357 73.7973 99.3247V99.54C73.7973 100.729 74.7593 101.693 75.946 101.693H123.932C125.119 101.693 126.081 100.729 126.081 99.54V99.3247C126.081 98.1357 125.119 97.1718 123.932 97.1718Z" fill="#D6D9F8"/>
<path d="M106.743 104.707H75.946C74.7593 104.707 73.7973 105.671 73.7973 106.86V107.075C73.7973 108.264 74.7593 109.228 75.946 109.228H106.743C107.93 109.228 108.892 108.264 108.892 107.075V106.86C108.892 105.671 107.93 104.707 106.743 104.707Z" fill="#D6D9F8"/>
<path d="M60.9054 111.812C65.6521 111.812 69.5 107.956 69.5 103.2C69.5 98.4439 65.6521 94.5883 60.9054 94.5883C56.1587 94.5883 52.3108 98.4439 52.3108 103.2C52.3108 107.956 56.1587 111.812 60.9054 111.812Z" fill="#4D5CED"/>
<path d="M136.824 124.012H48.7297C47.1475 124.012 45.8649 125.297 45.8649 126.882V151.282C45.8649 152.868 47.1475 154.153 48.7297 154.153H136.824C138.407 154.153 139.689 152.868 139.689 151.282V126.882C139.689 125.297 138.407 124.012 136.824 124.012Z" fill="white"/>
<path d="M123.932 133.054H75.946C74.7593 133.054 73.7973 134.018 73.7973 135.207V135.422C73.7973 136.611 74.7593 137.575 75.946 137.575H123.932C125.119 137.575 126.081 136.611 126.081 135.422V135.207C126.081 134.018 125.119 133.054 123.932 133.054Z" fill="#D6D9F8"/>
<path d="M106.743 140.589H75.946C74.7593 140.589 73.7973 141.553 73.7973 142.742V142.958C73.7973 144.147 74.7593 145.111 75.946 145.111H106.743C107.93 145.111 108.892 144.147 108.892 142.958V142.742C108.892 141.553 107.93 140.589 106.743 140.589Z" fill="#D6D9F8"/>
<path d="M60.9054 147.694C65.6521 147.694 69.5 143.839 69.5 139.082C69.5 134.326 65.6521 130.471 60.9054 130.471C56.1587 130.471 52.3108 134.326 52.3108 139.082C52.3108 143.839 56.1587 147.694 60.9054 147.694Z" fill="#AFB9C5"/>
<path d="M136.824 159.894H48.7297C47.1475 159.894 45.8649 161.179 45.8649 162.765V187.165C45.8649 188.75 47.1475 190.035 48.7297 190.035H136.824C138.407 190.035 139.689 188.75 139.689 187.165V162.765C139.689 161.179 138.407 159.894 136.824 159.894Z" fill="white"/>
<path d="M123.932 168.936H75.946C74.7593 168.936 73.7973 169.9 73.7973 171.089V171.305C73.7973 172.494 74.7593 173.458 75.946 173.458H123.932C125.119 173.458 126.081 172.494 126.081 171.305V171.089C126.081 169.9 125.119 168.936 123.932 168.936Z" fill="#D6D9F8"/>
<path d="M106.743 176.472H75.946C74.7593 176.472 73.7973 177.436 73.7973 178.625V178.84C73.7973 180.029 74.7593 180.993 75.946 180.993H106.743C107.93 180.993 108.892 180.029 108.892 178.84V178.625C108.892 177.436 107.93 176.472 106.743 176.472Z" fill="#D6D9F8"/>
<path d="M60.9054 183.576C65.6521 183.576 69.5 179.721 69.5 174.965C69.5 170.209 65.6521 166.353 60.9054 166.353C56.1587 166.353 52.3108 170.209 52.3108 174.965C52.3108 179.721 56.1587 183.576 60.9054 183.576Z" fill="#4D5CED"/>
<path d="M191.257 42.2H88.8379C85.6734 42.2 83.1082 44.7704 83.1082 47.9412V253.188C83.1082 256.359 85.6734 258.929 88.8379 258.929H191.257C194.421 258.929 196.986 256.359 196.986 253.188V47.9412C196.986 44.7704 194.421 42.2 191.257 42.2Z" fill="#D6D9F8"/>
<path d="M139.689 245.294C145.623 245.294 150.432 240.475 150.432 234.529C150.432 228.584 145.623 223.765 139.689 223.765C133.756 223.765 128.946 228.584 128.946 234.529C128.946 240.475 133.756 245.294 139.689 245.294Z" fill="white"/>
<path d="M130.378 56.5529C131.17 56.5529 131.811 55.9103 131.811 55.1176C131.811 54.3249 131.17 53.6823 130.378 53.6823C129.587 53.6823 128.946 54.3249 128.946 55.1176C128.946 55.9103 129.587 56.5529 130.378 56.5529Z" fill="white"/>
<path d="M149 53.6823H136.824C136.033 53.6823 135.392 54.3249 135.392 55.1176C135.392 55.9103 136.033 56.5529 136.824 56.5529H149C149.791 56.5529 150.432 55.9103 150.432 55.1176C150.432 54.3249 149.791 53.6823 149 53.6823Z" fill="white"/>
<path d="M184.095 62.2941H96C94.4178 62.2941 93.1351 63.5793 93.1351 65.1647V98.1765C93.1351 99.7619 94.4178 101.047 96 101.047H184.095C185.677 101.047 186.959 99.7619 186.959 98.1765V65.1647C186.959 63.5793 185.677 62.2941 184.095 62.2941Z" fill="white"/>
<path d="M149.716 73.92H101.73C100.543 73.92 99.5811 74.8839 99.5811 76.073V77.58C99.5811 78.769 100.543 79.7329 101.73 79.7329H149.716C150.903 79.7329 151.865 78.769 151.865 77.58V76.073C151.865 74.8839 150.903 73.92 149.716 73.92Z" fill="#D6D9F8"/>
<path d="M132.527 83.6083H101.73C100.543 83.6083 99.5811 84.5722 99.5811 85.7612V87.2683C99.5811 88.4573 100.543 89.4212 101.73 89.4212H132.527C133.714 89.4212 134.676 88.4573 134.676 87.2683V85.7612C134.676 84.5722 133.714 83.6083 132.527 83.6083Z" fill="#D6D9F8"/>
<path d="M176.932 86.6941C179.701 86.6941 181.946 84.445 181.946 81.6706C181.946 78.8962 179.701 76.6471 176.932 76.6471C174.164 76.6471 171.919 78.8962 171.919 81.6706C171.919 84.445 174.164 86.6941 176.932 86.6941Z" fill="#D6D9F8"/>
<path d="M176.932 83.8235C178.119 83.8235 179.081 82.8596 179.081 81.6706C179.081 80.4815 178.119 79.5176 176.932 79.5176C175.746 79.5176 174.784 80.4815 174.784 81.6706C174.784 82.8596 175.746 83.8235 176.932 83.8235Z" fill="#F2F2F2"/>
<path d="M184.095 106.788H96C94.4178 106.788 93.1351 108.073 93.1351 109.659V134.059C93.1351 135.644 94.4178 136.929 96 136.929H184.095C185.677 136.929 186.96 135.644 186.96 134.059V109.659C186.96 108.073 185.677 106.788 184.095 106.788Z" fill="white"/>
<path d="M171.203 115.831H123.216C122.03 115.831 121.068 116.795 121.068 117.984V118.199C121.068 119.388 122.03 120.352 123.216 120.352H171.203C172.389 120.352 173.351 119.388 173.351 118.199V117.984C173.351 116.795 172.389 115.831 171.203 115.831Z" fill="#D6D9F8"/>
<path d="M154.014 123.366H123.216C122.03 123.366 121.068 124.33 121.068 125.519V125.734C121.068 126.923 122.03 127.887 123.216 127.887H154.014C155.2 127.887 156.162 126.923 156.162 125.734V125.519C156.162 124.33 155.2 123.366 154.014 123.366Z" fill="#D6D9F8"/>
<path d="M108.176 130.471C112.922 130.471 116.77 126.615 116.77 121.859C116.77 117.103 112.922 113.247 108.176 113.247C103.429 113.247 99.5811 117.103 99.5811 121.859C99.5811 126.615 103.429 130.471 108.176 130.471Z" fill="#4D5CED"/>
<path d="M184.095 142.671H96C94.4178 142.671 93.1351 143.956 93.1351 145.541V169.941C93.1351 171.527 94.4178 172.812 96 172.812H184.095C185.677 172.812 186.96 171.527 186.96 169.941V145.541C186.96 143.956 185.677 142.671 184.095 142.671Z" fill="white"/>
<path d="M149.716 151.713H101.73C100.543 151.713 99.5811 152.677 99.5811 153.866V154.081C99.5811 155.27 100.543 156.234 101.73 156.234H149.716C150.903 156.234 151.865 155.27 151.865 154.081V153.866C151.865 152.677 150.903 151.713 149.716 151.713Z" fill="#D6D9F8"/>
<path d="M132.527 159.248H101.73C100.543 159.248 99.5811 160.212 99.5811 161.401V161.616C99.5811 162.806 100.543 163.769 101.73 163.769H132.527C133.714 163.769 134.676 162.806 134.676 161.616V161.401C134.676 160.212 133.714 159.248 132.527 159.248Z" fill="#AFB9C5"/>
<path d="M176.932 162.765C179.701 162.765 181.946 160.516 181.946 157.741C181.946 154.967 179.701 152.718 176.932 152.718C174.164 152.718 171.919 154.967 171.919 157.741C171.919 160.516 174.164 162.765 176.932 162.765Z" fill="#D6D9F8"/>
<path d="M176.932 159.894C178.119 159.894 179.081 158.93 179.081 157.741C179.081 156.552 178.119 155.588 176.932 155.588C175.746 155.588 174.784 156.552 174.784 157.741C174.784 158.93 175.746 159.894 176.932 159.894Z" fill="#F2F2F2"/>
<path d="M184.095 178.553H96C94.4178 178.553 93.1351 179.838 93.1351 181.424V205.824C93.1351 207.409 94.4178 208.694 96 208.694H184.095C185.677 208.694 186.96 207.409 186.96 205.824V181.424C186.96 179.838 185.677 178.553 184.095 178.553Z" fill="white"/>
<path d="M171.203 187.595H123.216C122.03 187.595 121.068 188.559 121.068 189.748V189.964C121.068 191.153 122.03 192.117 123.216 192.117H171.203C172.389 192.117 173.351 191.153 173.351 189.964V189.748C173.351 188.559 172.389 187.595 171.203 187.595Z" fill="#D6D9F8"/>
<path d="M154.014 195.131H123.216C122.03 195.131 121.068 196.095 121.068 197.284V197.499C121.068 198.688 122.03 199.652 123.216 199.652H154.014C155.2 199.652 156.162 198.688 156.162 197.499V197.284C156.162 196.095 155.2 195.131 154.014 195.131Z" fill="#D6D9F8"/>
<path d="M108.176 202.235C112.922 202.235 116.77 198.38 116.77 193.624C116.77 188.867 112.922 185.012 108.176 185.012C103.429 185.012 99.5811 188.867 99.5811 193.624C99.5811 198.38 103.429 202.235 108.176 202.235Z" fill="#4D5CED"/>
<path d="M364.581 60.1412H136.108C132.944 60.1412 130.378 62.7116 130.378 65.8823V302.706C130.378 305.877 132.944 308.447 136.108 308.447H364.581C367.745 308.447 370.311 305.877 370.311 302.706V65.8823C370.311 62.7116 367.745 60.1412 364.581 60.1412Z" fill="#F2F2F2"/>
<path d="M353.122 91H314.446C311.282 91 308.716 93.5704 308.716 96.7412V143.388C308.716 146.559 311.282 149.129 314.446 149.129H353.122C356.286 149.129 358.851 146.559 358.851 143.388V96.7412C358.851 93.5704 356.286 91 353.122 91Z" fill="white"/>
<path d="M333.784 124.729C340.113 124.729 345.243 119.589 345.243 113.247C345.243 106.906 340.113 101.765 333.784 101.765C327.455 101.765 322.324 106.906 322.324 113.247C322.324 119.589 327.455 124.729 333.784 124.729Z" fill="#D6D9F8"/>
<path d="M349.541 127.6H318.027C316.84 127.6 315.878 128.564 315.878 129.753C315.878 130.942 316.84 131.906 318.027 131.906H349.541C350.727 131.906 351.689 130.942 351.689 129.753C351.689 128.564 350.727 127.6 349.541 127.6Z" fill="#D6D9F8"/>
<path d="M343.811 134.776H323.757C322.57 134.776 321.608 135.74 321.608 136.929C321.608 138.118 322.57 139.082 323.757 139.082H343.811C344.997 139.082 345.959 138.118 345.959 136.929C345.959 135.74 344.997 134.776 343.811 134.776Z" fill="#D6D9F8"/>
<path fill-rule="evenodd" clip-rule="evenodd" d="M136.108 60.1412H364.581C367.745 60.1412 370.311 62.7116 370.311 65.8823V79.5176H130.378V65.8823C130.378 62.7116 132.944 60.1412 136.108 60.1412Z" fill="#4D5CED"/>
<path d="M139.689 73.0588C141.271 73.0588 142.554 71.7736 142.554 70.1882C142.554 68.6028 141.271 67.3176 139.689 67.3176C138.107 67.3176 136.824 68.6028 136.824 70.1882C136.824 71.7736 138.107 73.0588 139.689 73.0588Z" fill="#F2F2F2"/>
<path d="M148.284 73.0588C149.866 73.0588 151.149 71.7736 151.149 70.1882C151.149 68.6028 149.866 67.3176 148.284 67.3176C146.702 67.3176 145.419 68.6028 145.419 70.1882C145.419 71.7736 146.702 73.0588 148.284 73.0588Z" fill="#F2F2F2"/>
<path d="M156.878 73.0588C158.461 73.0588 159.743 71.7736 159.743 70.1882C159.743 68.6028 158.461 67.3176 156.878 67.3176C155.296 67.3176 154.014 68.6028 154.014 70.1882C154.014 71.7736 155.296 73.0588 156.878 73.0588Z" fill="#F2F2F2"/>
<path d="M353.122 154.871H314.446C311.282 154.871 308.716 157.441 308.716 160.612V288.353C308.716 291.524 311.282 294.094 314.446 294.094H353.122C356.286 294.094 358.851 291.524 358.851 288.353V160.612C358.851 157.441 356.286 154.871 353.122 154.871Z" fill="white"/>
<path d="M343.095 167.788H324.473C322.891 167.788 321.608 169.073 321.608 170.659V183.576C321.608 185.162 322.891 186.447 324.473 186.447H343.095C344.677 186.447 345.96 185.162 345.96 183.576V170.659C345.96 169.073 344.677 167.788 343.095 167.788Z" fill="#D6D9F8"/>
<path d="M343.095 192.188H324.473C322.891 192.188 321.608 193.473 321.608 195.059V207.259C321.608 208.844 322.891 210.129 324.473 210.129H343.095C344.677 210.129 345.96 208.844 345.96 207.259V195.059C345.96 193.473 344.677 192.188 343.095 192.188Z" fill="#AFB9C5"/>
<path d="M343.095 215.871H324.473C322.891 215.871 321.608 217.156 321.608 218.741V230.941C321.608 232.527 322.891 233.812 324.473 233.812H343.095C344.677 233.812 345.96 232.527 345.96 230.941V218.741C345.96 217.156 344.677 215.871 343.095 215.871Z" fill="#D6D9F8"/>
<path d="M343.095 263.235H324.473C322.891 263.235 321.608 264.52 321.608 266.106V278.306C321.608 279.891 322.891 281.176 324.473 281.176H343.095C344.677 281.176 345.96 279.891 345.96 278.306V266.106C345.96 264.52 344.677 263.235 343.095 263.235Z" fill="#D6D9F8"/>
<path d="M343.095 239.553H324.473C322.891 239.553 321.608 240.838 321.608 242.424V254.624C321.608 256.209 322.891 257.494 324.473 257.494H343.095C344.677 257.494 345.96 256.209 345.96 254.624V242.424C345.96 240.838 344.677 239.553 343.095 239.553Z" fill="#4D5CED"/>
<path d="M300.122 91.7177H144.703C143.121 91.7177 141.838 93.0029 141.838 94.5882V122.576C141.838 124.162 143.121 125.447 144.703 125.447H300.122C301.704 125.447 302.986 124.162 302.986 122.576V94.5882C302.986 93.0029 301.704 91.7177 300.122 91.7177Z" fill="white"/>
<path d="M265.743 101.836H150.432C149.246 101.836 148.284 102.8 148.284 103.989V104.743C148.284 105.932 149.246 106.896 150.432 106.896H265.743C266.93 106.896 267.892 105.932 267.892 104.743V103.989C267.892 102.8 266.93 101.836 265.743 101.836Z" fill="#D6D9F8"/>
<path d="M226.42 110.269H150.432C149.246 110.269 148.284 111.233 148.284 112.422V113.175C148.284 114.364 149.246 115.328 150.432 115.328H226.42C227.607 115.328 228.569 114.364 228.569 113.175V112.422C228.569 111.233 227.607 110.269 226.42 110.269Z" fill="#D6D9F8"/>
<path d="M285.765 113.606C288.533 113.606 290.778 111.357 290.778 108.582C290.778 105.808 288.533 103.559 285.765 103.559C282.996 103.559 280.751 105.808 280.751 108.582C280.751 111.357 282.996 113.606 285.765 113.606Z" fill="#D6D9F8"/>
<path d="M285.764 110.735C286.951 110.735 287.913 109.771 287.913 108.582C287.913 107.393 286.951 106.429 285.764 106.429C284.578 106.429 283.616 107.393 283.616 108.582C283.616 109.771 284.578 110.735 285.764 110.735Z" fill="#F2F2F2"/>
<path d="M300.122 131.188H144.703C143.121 131.188 141.838 132.473 141.838 134.059V156.306C141.838 157.891 143.121 159.176 144.703 159.176H300.122C301.704 159.176 302.986 157.891 302.986 156.306V134.059C302.986 132.473 301.704 131.188 300.122 131.188Z" fill="white"/>
<path d="M265.797 139.585H150.379C149.222 139.585 148.284 140.525 148.284 141.684C148.284 142.843 149.222 143.783 150.379 143.783H265.797C266.954 143.783 267.892 142.843 267.892 141.684C267.892 140.525 266.954 139.585 265.797 139.585Z" fill="#D6D9F8"/>
<path d="M226.474 146.582H150.379C149.222 146.582 148.284 147.522 148.284 148.681C148.284 149.84 149.222 150.78 150.379 150.78H226.474C227.631 150.78 228.569 149.84 228.569 148.681C228.569 147.522 227.631 146.582 226.474 146.582Z" fill="#D6D9F8"/>
<path d="M285.765 150.206C288.533 150.206 290.778 147.957 290.778 145.182C290.778 142.408 288.533 140.159 285.765 140.159C282.996 140.159 280.751 142.408 280.751 145.182C280.751 147.957 282.996 150.206 285.765 150.206Z" fill="#D6D9F8"/>
<path d="M285.764 147.335C286.951 147.335 287.913 146.371 287.913 145.182C287.913 143.993 286.951 143.029 285.764 143.029C284.578 143.029 283.616 143.993 283.616 145.182C283.616 146.371 284.578 147.335 285.764 147.335Z" fill="#F2F2F2"/>
<path d="M300.122 164.918H144.703C143.121 164.918 141.838 166.203 141.838 167.788V190.035C141.838 191.621 143.121 192.906 144.703 192.906H300.122C301.704 192.906 302.986 191.621 302.986 190.035V167.788C302.986 166.203 301.704 164.918 300.122 164.918Z" fill="white"/>
<path d="M265.797 173.314H150.379C149.222 173.314 148.284 174.254 148.284 175.413C148.284 176.573 149.222 177.512 150.379 177.512H265.797C266.954 177.512 267.892 176.573 267.892 175.413C267.892 174.254 266.954 173.314 265.797 173.314Z" fill="#D6D9F8"/>
<path d="M226.474 180.311H150.379C149.222 180.311 148.284 181.251 148.284 182.41C148.284 183.57 149.222 184.509 150.379 184.509H226.474C227.631 184.509 228.569 183.57 228.569 182.41C228.569 181.251 227.631 180.311 226.474 180.311Z" fill="#D6D9F8"/>
<path d="M285.765 183.935C288.533 183.935 290.778 181.686 290.778 178.912C290.778 176.137 288.533 173.888 285.765 173.888C282.996 173.888 280.751 176.137 280.751 178.912C280.751 181.686 282.996 183.935 285.765 183.935Z" fill="#D6D9F8"/>
<path d="M285.764 181.065C286.951 181.065 287.913 180.101 287.913 178.912C287.913 177.723 286.951 176.759 285.764 176.759C284.578 176.759 283.616 177.723 283.616 178.912C283.616 180.101 284.578 181.065 285.764 181.065Z" fill="#AFB9C5"/>
<path d="M300.122 266.106H144.703C143.121 266.106 141.838 267.391 141.838 268.976V291.224C141.838 292.809 143.121 294.094 144.703 294.094H300.122C301.704 294.094 302.986 292.809 302.986 291.224V268.976C302.986 267.391 301.704 266.106 300.122 266.106Z" fill="white"/>
<path d="M265.797 274.502H150.379C149.222 274.502 148.284 275.442 148.284 276.601C148.284 277.761 149.222 278.701 150.379 278.701H265.797C266.954 278.701 267.892 277.761 267.892 276.601C267.892 275.442 266.954 274.502 265.797 274.502Z" fill="#D6D9F8"/>
<path d="M226.474 281.499H150.379C149.222 281.499 148.284 282.439 148.284 283.599C148.284 284.758 149.222 285.698 150.379 285.698H226.474C227.631 285.698 228.569 284.758 228.569 283.599C228.569 282.439 227.631 281.499 226.474 281.499Z" fill="#D6D9F8"/>
<path d="M285.765 285.124C288.533 285.124 290.778 282.874 290.778 280.1C290.778 277.326 288.533 275.076 285.765 275.076C282.996 275.076 280.751 277.326 280.751 280.1C280.751 282.874 282.996 285.124 285.765 285.124Z" fill="#D6D9F8"/>
<path d="M285.764 282.253C286.951 282.253 287.913 281.289 287.913 280.1C287.913 278.911 286.951 277.947 285.764 277.947C284.578 277.947 283.616 278.911 283.616 280.1C283.616 281.289 284.578 282.253 285.764 282.253Z" fill="#F2F2F2"/>
<path d="M300.122 232.376H144.703C143.121 232.376 141.838 233.662 141.838 235.247V257.494C141.838 259.08 143.121 260.365 144.703 260.365H300.122C301.704 260.365 302.986 259.08 302.986 257.494V235.247C302.986 233.662 301.704 232.376 300.122 232.376Z" fill="white"/>
<path d="M265.797 240.773H150.379C149.222 240.773 148.284 241.713 148.284 242.872C148.284 244.031 149.222 244.971 150.379 244.971H265.797C266.954 244.971 267.892 244.031 267.892 242.872C267.892 241.713 266.954 240.773 265.797 240.773Z" fill="#D6D9F8"/>
<path d="M226.474 247.77H150.379C149.222 247.77 148.284 248.71 148.284 249.869C148.284 251.028 149.222 251.968 150.379 251.968H226.474C227.631 251.968 228.569 251.028 228.569 249.869C228.569 248.71 227.631 247.77 226.474 247.77Z" fill="#D6D9F8"/>
<path d="M285.765 251.394C288.533 251.394 290.778 249.145 290.778 246.371C290.778 243.596 288.533 241.347 285.765 241.347C282.996 241.347 280.751 243.596 280.751 246.371C280.751 249.145 282.996 251.394 285.765 251.394Z" fill="#D6D9F8"/>
<path d="M285.764 248.524C286.951 248.524 287.913 247.56 287.913 246.371C287.913 245.182 286.951 244.218 285.764 244.218C284.578 244.218 283.616 245.182 283.616 246.371C283.616 247.56 284.578 248.524 285.764 248.524Z" fill="#F2F2F2"/>
<path d="M300.122 198.647H144.703C143.121 198.647 141.838 199.932 141.838 201.518V223.765C141.838 225.35 143.121 226.635 144.703 226.635H300.122C301.704 226.635 302.986 225.35 302.986 223.765V201.518C302.986 199.932 301.704 198.647 300.122 198.647Z" fill="white"/>
<path d="M265.797 207.044H150.379C149.222 207.044 148.284 207.983 148.284 209.143C148.284 210.302 149.222 211.242 150.379 211.242H265.797C266.954 211.242 267.892 210.302 267.892 209.143C267.892 207.983 266.954 207.044 265.797 207.044Z" fill="#D6D9F8"/>
<path d="M226.474 214.041H150.379C149.222 214.041 148.284 214.98 148.284 216.14C148.284 217.299 149.222 218.239 150.379 218.239H226.474C227.631 218.239 228.569 217.299 228.569 216.14C228.569 214.98 227.631 214.041 226.474 214.041Z" fill="#D6D9F8"/>
<path d="M285.765 217.665C288.533 217.665 290.778 215.416 290.778 212.641C290.778 209.867 288.533 207.618 285.765 207.618C282.996 207.618 280.751 209.867 280.751 212.641C280.751 215.416 282.996 217.665 285.765 217.665Z" fill="#D6D9F8"/>
<path d="M285.764 214.794C286.951 214.794 287.913 213.83 287.913 212.641C287.913 211.452 286.951 210.488 285.764 210.488C284.578 210.488 283.616 211.452 283.616 212.641C283.616 213.83 284.578 214.794 285.764 214.794Z" fill="#F2F2F2"/>
<path fill-rule="evenodd" clip-rule="evenodd" d="M1.04904e-05 32.923C1.04904e-05 17.0182 12.8279 3.99994 28.5 3.99994V32.923L9.02311 53.9746C3.48271 48.8277 1.04904e-05 41.2774 1.04904e-05 32.923Z" fill="#F2F2F2"/>
<path fill-rule="evenodd" clip-rule="evenodd" d="M27.7458 32.557H56.5269C56.5269 40.0117 53.4919 46.9967 48.6941 52.0727C43.4171 57.6241 35.9024 61.1138 27.7458 61.1138C20.2326 61.1138 13.3553 58.1025 8.07689 53.342L27.7458 32.557Z" fill="#AFB9C5"/>
<path fill-rule="evenodd" clip-rule="evenodd" d="M57 32.557C57 16.8535 44.1722 4.00006 28.5 4.00006V32.557H57ZM14.25 4.00006L25.65 29.7013L3.05176e-05 18.2785C2.53653 11.6162 8.23225 6.54163 14.25 4.00006Z" fill="#4D5CED"/>
<path fill-rule="evenodd" clip-rule="evenodd" d="M423.144 232.505C421.767 233.969 419.818 234.888 417.649 234.888C413.483 234.888 410.105 231.515 410.105 227.353C410.105 223.191 413.483 219.818 417.649 219.818V205.824C405.796 205.824 396.095 215.514 396.095 227.353C396.095 239.192 405.796 248.882 417.649 248.882C423.875 248.882 429.502 246.251 433.338 242.066L423.144 232.505Z" fill="#F2F2F2"/>
<path fill-rule="evenodd" clip-rule="evenodd" d="M417.581 205.823V219.818C421.734 219.818 425.101 223.191 425.101 227.353H439.068C439.068 215.514 429.396 205.823 417.581 205.823Z" fill="#AFB9C5"/>
<path fill-rule="evenodd" clip-rule="evenodd" d="M424.813 227.353C424.813 229.798 423.664 231.971 421.878 233.375L430.66 244.576C435.772 240.566 439.068 234.349 439.068 227.353H424.813Z" fill="#4D5CED"/>
</svg>
