<svg id="Capa_1" enable-background="new 0 0 512 512" height="512" viewBox="0 0 512 512" width="512" xmlns="http://www.w3.org/2000/svg"><g><path d="m504.5 149.74h-57v-85.63c0-10.618-4.133-20.599-11.637-28.103-7.511-7.511-17.491-11.647-28.104-11.647h-313.519c-4.142 0-7.5 3.358-7.5 7.5s3.358 7.5 7.5 7.5h282.449c-5.425 6.796-8.679 15.398-8.679 24.75v341.74h-353.01v-341.74c0-13.647 11.103-24.75 24.75-24.75h24.49c4.142 0 7.5-3.358 7.5-7.5s-3.358-7.5-7.5-7.5h-24.49c-21.918 0-39.75 17.831-39.75 39.75v349.24c0 4.142 3.358 7.5 7.5 7.5h89.243v27.043c0 21.917 17.831 39.748 39.748 39.748h335.761c.007 0 .014-.001.021-.001 10.603-.006 20.577-4.136 28.09-11.636 7.504-7.504 11.637-17.489 11.637-28.114v-290.65c0-4.142-3.357-7.5-7.5-7.5zm-7.5 298.15c0 6.619-2.572 12.836-7.239 17.502-4.682 4.674-10.9 7.248-17.511 7.248-13.642 0-24.74-11.103-24.74-24.75l-.01-177.91c0-4.142-3.357-7.5-7.5-7.5s-7.5 3.358-7.5 7.5l.01 177.91c0 9.353 3.254 17.954 8.677 24.75h-304.696c-13.646 0-24.748-11.102-24.748-24.748v-27.042h263.767c4.143 0 7.5-3.358 7.5-7.5v-349.24c0-13.647 11.103-24.75 24.75-24.75 6.605 0 12.819 2.576 17.496 7.253 4.672 4.671 7.244 10.885 7.244 17.497v175.87c0 4.142 3.357 7.5 7.5 7.5s7.5-3.358 7.5-7.5v-75.24h49.5z"/><path d="m172.129 87.32c0-4.142-3.358-7.5-7.5-7.5h-114.696c-4.142 0-7.5 3.358-7.5 7.5v90.776c0 4.142 3.358 7.5 7.5 7.5h114.696c4.142 0 7.5-3.358 7.5-7.5zm-15 83.275h-99.696v-75.775h99.696z"/><path d="m164.629 215.983h-114.696c-4.142 0-7.5 3.358-7.5 7.5s3.358 7.5 7.5 7.5h114.696c4.142 0 7.5-3.358 7.5-7.5s-3.358-7.5-7.5-7.5z"/><path d="m164.629 261.371h-114.696c-4.142 0-7.5 3.358-7.5 7.5s3.358 7.5 7.5 7.5h114.696c4.142 0 7.5-3.358 7.5-7.5s-3.358-7.5-7.5-7.5z"/><path d="m164.629 306.759h-114.696c-4.142 0-7.5 3.358-7.5 7.5s3.358 7.5 7.5 7.5h114.696c4.142 0 7.5-3.358 7.5-7.5s-3.358-7.5-7.5-7.5z"/><path d="m164.629 352.146h-114.696c-4.142 0-7.5 3.358-7.5 7.5s3.358 7.5 7.5 7.5h114.696c4.142 0 7.5-3.358 7.5-7.5s-3.358-7.5-7.5-7.5z"/><path d="m216.41 94.82h114.696c4.143 0 7.5-3.358 7.5-7.5s-3.357-7.5-7.5-7.5h-114.696c-4.142 0-7.5 3.358-7.5 7.5s3.358 7.5 7.5 7.5z"/><path d="m216.41 140.207h114.696c4.143 0 7.5-3.358 7.5-7.5s-3.357-7.5-7.5-7.5h-114.696c-4.142 0-7.5 3.358-7.5 7.5s3.358 7.5 7.5 7.5z"/><path d="m216.41 185.595h114.696c4.143 0 7.5-3.358 7.5-7.5s-3.357-7.5-7.5-7.5h-114.696c-4.142 0-7.5 3.358-7.5 7.5s3.358 7.5 7.5 7.5z"/><path d="m208.91 314.259c0 4.142 3.358 7.5 7.5 7.5h114.696c4.143 0 7.5-3.358 7.5-7.5v-90.775c0-4.142-3.357-7.5-7.5-7.5h-114.696c-4.142 0-7.5 3.358-7.5 7.5zm15-83.276h99.696v75.775h-99.696z"/><path d="m216.41 367.146h114.696c4.143 0 7.5-3.358 7.5-7.5s-3.357-7.5-7.5-7.5h-114.696c-4.142 0-7.5 3.358-7.5 7.5s3.358 7.5 7.5 7.5z"/></g></svg>