<?xml version="1.0" encoding="iso-8859-1"?>
<!-- Generator: Adobe Illustrator 19.0.0, SVG Export Plug-In . SVG Version: 6.00 Build 0)  -->
<svg version="1.1" id="Capa_1" xmlns="http://www.w3.org/2000/svg" xmlns:xlink="http://www.w3.org/1999/xlink" x="0px" y="0px"
	 viewBox="0 0 512 512" style="enable-background:new 0 0 512 512;" xml:space="preserve">
<path style="fill:#896748;" d="M481,45v75l-26.4,15H61.901L31,120V45C31,20.099,51.099,0,76,0h360C460.901,0,481,20.099,481,45z"/>
<path style="fill:#73553A;" d="M481,45v75l-26.4,15H256V0h180C460.901,0,481,20.099,481,45z"/>
<path style="fill:#FEDB41;" d="M481,120v272L361,512H46c-8.401,0-15-6.599-15-15V120H481z"/>
<g>
	<path style="fill:#FEA832;" d="M391,227c0,8.401-6.599,15-15,15H136c-8.401,0-15-6.599-15-15s6.599-15,15-15h240
		C384.401,212,391,218.599,391,227z"/>
	<path style="fill:#FEA832;" d="M391,317c0,8.401-6.599,15-15,15H136c-8.401,0-15-6.599-15-15s6.599-15,15-15h240
		C384.401,302,391,308.599,391,317z"/>
	<path style="fill:#FEA832;" d="M301,407c0,8.401-6.599,15-15,15H136c-8.401,0-15-6.599-15-15s6.599-15,15-15h150
		C294.401,392,301,398.599,301,407z"/>
</g>
<circle style="fill:#E5E5E5;" cx="136" cy="75" r="15"/>
<circle style="fill:#D9D9D9;" cx="376" cy="75" r="15"/>
<polygon style="fill:#FCBF29;" points="481,120 481,392 361,512 256,512 256,120 "/>
<g>
	<path style="fill:#FE9923;" d="M301,407c0,8.401-6.599,15-15,15h-30v-30h30C294.401,392,301,398.599,301,407z"/>
	<path style="fill:#FE9923;" d="M391,317c0,8.401-6.599,15-15,15H256v-30h120C384.401,302,391,308.599,391,317z"/>
	<path style="fill:#FE9923;" d="M391,227c0,8.401-6.599,15-15,15H256v-30h120C384.401,212,391,218.599,391,227z"/>
	<path style="fill:#FE9923;" d="M376,512c4.136,0,7.892-1.666,10.649-4.424l89.927-89.927c2.725-2.71,4.409-6.46,4.424-10.605V407
		v-15H376c-8.284,0-15,6.716-15,15v105h14.883C375.927,512,375.956,512,376,512z"/>
</g>
<g>
</g>
<g>
</g>
<g>
</g>
<g>
</g>
<g>
</g>
<g>
</g>
<g>
</g>
<g>
</g>
<g>
</g>
<g>
</g>
<g>
</g>
<g>
</g>
<g>
</g>
<g>
</g>
<g>
</g>
</svg>
