<svg width="76" height="20" viewBox="0 0 76 20" fill="none" xmlns="http://www.w3.org/2000/svg">
<rect x="0.5" y="0.5" width="75" height="19" rx="2.5" stroke="#2980B9"/>
<path d="M20.1538 11.0942V14H18.7949V6.17969H21.7866C22.6603 6.17969 23.3532 6.40706 23.8652 6.86182C24.3809 7.31657 24.6387 7.91813 24.6387 8.6665C24.6387 9.43278 24.3862 10.029 23.8813 10.4551C23.38 10.8812 22.6764 11.0942 21.7705 11.0942H20.1538ZM20.1538 10.0039H21.7866C22.27 10.0039 22.6388 9.89111 22.8931 9.66553C23.1473 9.43636 23.2744 9.10693 23.2744 8.67725C23.2744 8.25472 23.1455 7.91813 22.8877 7.66748C22.6299 7.41325 22.2754 7.28255 21.8242 7.27539H20.1538V10.0039ZM25.3853 11.0405C25.3853 10.4712 25.498 9.95915 25.7236 9.50439C25.9492 9.04606 26.2661 8.69515 26.6743 8.45166C27.0825 8.20459 27.5516 8.08105 28.0815 8.08105C28.8657 8.08105 29.5013 8.3335 29.9883 8.83838C30.4788 9.34326 30.7438 10.0129 30.7832 10.8472L30.7886 11.1533C30.7886 11.7262 30.6776 12.2383 30.4556 12.6895C30.2371 13.1406 29.922 13.4897 29.5103 13.7368C29.1021 13.9839 28.6294 14.1074 28.0923 14.1074C27.2723 14.1074 26.6152 13.8353 26.1211 13.291C25.6305 12.7432 25.3853 12.0145 25.3853 11.105V11.0405ZM26.6904 11.1533C26.6904 11.7513 26.814 12.2204 27.061 12.5605C27.3081 12.8971 27.6519 13.0654 28.0923 13.0654C28.5327 13.0654 28.8747 12.8936 29.1182 12.5498C29.3652 12.2061 29.4888 11.703 29.4888 11.0405C29.4888 10.4533 29.3617 9.98779 29.1074 9.64404C28.8568 9.30029 28.5148 9.12842 28.0815 9.12842C27.6554 9.12842 27.3171 9.2985 27.0664 9.63867C26.8158 9.97526 26.6904 10.4801 26.6904 11.1533ZM35.1499 12.4209C35.1499 12.1882 35.0532 12.0109 34.8599 11.8892C34.6701 11.7674 34.3532 11.66 33.9092 11.5669C33.4652 11.4738 33.0946 11.3556 32.7974 11.2124C32.1457 10.8973 31.8198 10.4408 31.8198 9.84277C31.8198 9.34147 32.0311 8.92253 32.4536 8.58594C32.8761 8.24935 33.4132 8.08105 34.0649 8.08105C34.7596 8.08105 35.32 8.25293 35.7461 8.59668C36.1758 8.94043 36.3906 9.38623 36.3906 9.93408H35.0854C35.0854 9.68343 34.9924 9.47575 34.8062 9.31104C34.62 9.14274 34.3729 9.05859 34.0649 9.05859C33.7785 9.05859 33.5439 9.12484 33.3613 9.25732C33.1823 9.38981 33.0928 9.56706 33.0928 9.78906C33.0928 9.98958 33.1769 10.1453 33.3452 10.2563C33.5135 10.3674 33.8537 10.4801 34.3657 10.5947C34.8778 10.7057 35.2788 10.84 35.5688 10.9976C35.8625 11.1515 36.0791 11.3377 36.2188 11.5562C36.362 11.7746 36.4336 12.0396 36.4336 12.3511C36.4336 12.8739 36.217 13.2982 35.7837 13.624C35.3504 13.9463 34.7829 14.1074 34.0811 14.1074C33.6048 14.1074 33.1805 14.0215 32.8081 13.8496C32.4357 13.6777 32.1457 13.4414 31.938 13.1406C31.7303 12.8398 31.6265 12.5158 31.6265 12.1685H32.894C32.9119 12.4764 33.0283 12.7145 33.2432 12.8828C33.458 13.0475 33.7427 13.1299 34.0972 13.1299C34.4409 13.1299 34.7023 13.0654 34.8813 12.9365C35.0604 12.804 35.1499 12.6322 35.1499 12.4209ZM38.9634 14H37.6582V8.18848H38.9634V14ZM37.5776 6.6792C37.5776 6.47868 37.6403 6.31217 37.7656 6.17969C37.8945 6.0472 38.0771 5.98096 38.3135 5.98096C38.5498 5.98096 38.7324 6.0472 38.8613 6.17969C38.9902 6.31217 39.0547 6.47868 39.0547 6.6792C39.0547 6.87614 38.9902 7.04085 38.8613 7.17334C38.7324 7.30225 38.5498 7.3667 38.3135 7.3667C38.0771 7.3667 37.8945 7.30225 37.7656 7.17334C37.6403 7.04085 37.5776 6.87614 37.5776 6.6792ZM42.0249 6.77588V8.18848H43.0508V9.15527H42.0249V12.3994C42.0249 12.6214 42.0679 12.7826 42.1538 12.8828C42.2433 12.9795 42.4009 13.0278 42.6265 13.0278C42.7769 13.0278 42.929 13.0099 43.083 12.9741V13.9839C42.7858 14.0662 42.4993 14.1074 42.2236 14.1074C41.221 14.1074 40.7197 13.5542 40.7197 12.4478V9.15527H39.7637V8.18848H40.7197V6.77588H42.0249ZM45.4409 14H44.1357V8.18848H45.4409V14ZM44.0552 6.6792C44.0552 6.47868 44.1178 6.31217 44.2432 6.17969C44.3721 6.0472 44.5547 5.98096 44.791 5.98096C45.0273 5.98096 45.21 6.0472 45.3389 6.17969C45.4678 6.31217 45.5322 6.47868 45.5322 6.6792C45.5322 6.87614 45.4678 7.04085 45.3389 7.17334C45.21 7.30225 45.0273 7.3667 44.791 7.3667C44.5547 7.3667 44.3721 7.30225 44.2432 7.17334C44.1178 7.04085 44.0552 6.87614 44.0552 6.6792ZM48.916 12.3457L50.146 8.18848H51.4941L49.48 14H48.3467L46.3164 8.18848H47.6699L48.916 12.3457ZM54.7974 14.1074C53.9702 14.1074 53.2988 13.8478 52.7832 13.3286C52.2712 12.8058 52.0151 12.1112 52.0151 11.2446V11.0835C52.0151 10.5034 52.1261 9.986 52.3481 9.53125C52.5737 9.07292 52.8888 8.71663 53.2935 8.4624C53.6981 8.20817 54.1493 8.08105 54.647 8.08105C55.4383 8.08105 56.0488 8.3335 56.4785 8.83838C56.9118 9.34326 57.1284 10.0576 57.1284 10.9814V11.5078H53.3311C53.3704 11.9876 53.5298 12.3672 53.8091 12.6465C54.092 12.9258 54.4465 13.0654 54.8726 13.0654C55.4705 13.0654 55.9575 12.8237 56.3335 12.3403L57.0371 13.0117C56.8044 13.359 56.4928 13.6294 56.1025 13.8228C55.7158 14.0125 55.2808 14.1074 54.7974 14.1074ZM54.6416 9.12842C54.2835 9.12842 53.9935 9.25374 53.7715 9.50439C53.5531 9.75505 53.4134 10.1042 53.3525 10.5518H55.8394V10.4551C55.8107 10.0182 55.6943 9.6888 55.4902 9.4668C55.2861 9.24121 55.0033 9.12842 54.6416 9.12842Z" fill="#2980B9"/>
</svg>
