<?xml version="1.0" encoding="iso-8859-1"?>
<!-- Generator: Adobe Illustrator 19.0.0, SVG Export Plug-In . SVG Version: 6.00 Build 0)  -->
<svg version="1.1" id="Capa_1" xmlns="http://www.w3.org/2000/svg" xmlns:xlink="http://www.w3.org/1999/xlink" x="0px" y="0px"
	 viewBox="0 0 512 512" style="enable-background:new 0 0 512 512;" xml:space="preserve">
<polygon style="fill:#42C8C6;" points="391,0 391,165 226,165 256,0 "/>
<rect x="121" style="fill:#81E3E2;" width="135" height="165"/>
<rect x="241" y="60" style="fill:#02ACAB;" width="30" height="105"/>
<rect x="166" y="60" style="fill:#42C8C6;" width="30" height="105"/>
<rect x="316" y="60" style="fill:#02ACAB;" width="30" height="105"/>
<polygon style="fill:#737373;" points="256,437 0,437 0,407 256,377 "/>
<polygon style="fill:#4D4D4D;" points="256,437 512,437 512,407 256,377 "/>
<path style="fill:#272727;" d="M512,225v182H226l30-257h181C478.36,150,512,183.64,512,225z"/>
<path style="fill:#4D4D4D;" d="M256,150v257H0V225c0-41.36,33.64-75,75-75H256z"/>
<rect x="422" y="235" style="fill:#42C8C6;" width="30" height="30"/>
<polygon style="fill:#FFE985;" points="391,295 391,407 306,427 286,512 256,512 216,265 "/>
<polygon style="fill:#FEDC3D;" points="391,407 286,512 286,407 "/>
<polygon style="fill:#FFF2B8;" points="121,295 121,512 256,512 256,265 "/>
<polygon style="fill:#4D4D4D;" points="391,235 391,295 256,295 226,265 256,235 "/>
<rect x="121" y="235" style="fill:#737373;" width="135" height="60"/>
<g>
</g>
<g>
</g>
<g>
</g>
<g>
</g>
<g>
</g>
<g>
</g>
<g>
</g>
<g>
</g>
<g>
</g>
<g>
</g>
<g>
</g>
<g>
</g>
<g>
</g>
<g>
</g>
<g>
</g>
</svg>
