<svg width="76" height="20" viewBox="0 0 76 20" fill="none" xmlns="http://www.w3.org/2000/svg">
<rect x="0.5" y="0.5" width="75" height="19" rx="2.5" stroke="#F1C40F"/>
<path d="M19.6685 10.9868H18.1538V14H16.7949V6.17969H19.5449C20.4473 6.17969 21.1437 6.382 21.6343 6.78662C22.1248 7.19124 22.3701 7.77669 22.3701 8.54297C22.3701 9.06576 22.243 9.50439 21.9888 9.85889C21.7381 10.2098 21.3872 10.4801 20.936 10.6699L22.6924 13.9302V14H21.2368L19.6685 10.9868ZM18.1538 9.89648H19.5503C20.0086 9.89648 20.3667 9.7819 20.6245 9.55273C20.8823 9.31999 21.0112 9.00309 21.0112 8.60205C21.0112 8.18311 20.8913 7.85905 20.6514 7.62988C20.415 7.40072 20.0605 7.28255 19.5879 7.27539H18.1538V9.89648ZM26.0923 14.1074C25.2651 14.1074 24.5938 13.8478 24.0781 13.3286C23.5661 12.8058 23.3101 12.1112 23.3101 11.2446V11.0835C23.3101 10.5034 23.4211 9.986 23.6431 9.53125C23.8687 9.07292 24.1838 8.71663 24.5884 8.4624C24.993 8.20817 25.4442 8.08105 25.9419 8.08105C26.7332 8.08105 27.3438 8.3335 27.7734 8.83838C28.2067 9.34326 28.4233 10.0576 28.4233 10.9814V11.5078H24.626C24.6654 11.9876 24.8247 12.3672 25.104 12.6465C25.3869 12.9258 25.7414 13.0654 26.1675 13.0654C26.7655 13.0654 27.2524 12.8237 27.6284 12.3403L28.332 13.0117C28.0993 13.359 27.7878 13.6294 27.3975 13.8228C27.0107 14.0125 26.5757 14.1074 26.0923 14.1074ZM25.9365 9.12842C25.5785 9.12842 25.2884 9.25374 25.0664 9.50439C24.848 9.75505 24.7083 10.1042 24.6475 10.5518H27.1343V10.4551C27.1056 10.0182 26.9893 9.6888 26.7852 9.4668C26.5811 9.24121 26.2982 9.12842 25.9365 9.12842ZM29.9004 14V9.15527H29.0142V8.18848H29.9004V7.65674C29.9004 7.01221 30.0794 6.51449 30.4375 6.16357C30.7956 5.81266 31.2969 5.63721 31.9414 5.63721C32.1706 5.63721 32.4141 5.66943 32.6719 5.73389L32.6396 6.75439C32.4964 6.72575 32.3299 6.71143 32.1401 6.71143C31.5171 6.71143 31.2056 7.0319 31.2056 7.67285V8.18848H32.3872V9.15527H31.2056V14H29.9004ZM35.771 14.1074C34.9438 14.1074 34.2725 13.8478 33.7568 13.3286C33.2448 12.8058 32.9888 12.1112 32.9888 11.2446V11.0835C32.9888 10.5034 33.0998 9.986 33.3218 9.53125C33.5474 9.07292 33.8625 8.71663 34.2671 8.4624C34.6717 8.20817 35.1229 8.08105 35.6206 8.08105C36.4119 8.08105 37.0225 8.3335 37.4521 8.83838C37.8854 9.34326 38.1021 10.0576 38.1021 10.9814V11.5078H34.3047C34.3441 11.9876 34.5034 12.3672 34.7827 12.6465C35.0656 12.9258 35.4201 13.0654 35.8462 13.0654C36.4442 13.0654 36.9312 12.8237 37.3071 12.3403L38.0107 13.0117C37.778 13.359 37.4665 13.6294 37.0762 13.8228C36.6895 14.0125 36.2544 14.1074 35.771 14.1074ZM35.6152 9.12842C35.2572 9.12842 34.9671 9.25374 34.7451 9.50439C34.5267 9.75505 34.387 10.1042 34.3262 10.5518H36.813V10.4551C36.7843 10.0182 36.668 9.6888 36.4639 9.4668C36.2598 9.24121 35.9769 9.12842 35.6152 9.12842ZM42.1626 9.38086C41.9907 9.35221 41.8135 9.33789 41.6309 9.33789C41.0329 9.33789 40.63 9.56706 40.4224 10.0254V14H39.1172V8.18848H40.3633L40.3955 8.83838C40.7106 8.3335 41.1475 8.08105 41.7061 8.08105C41.8923 8.08105 42.0462 8.10612 42.168 8.15625L42.1626 9.38086ZM46.0298 9.38086C45.8579 9.35221 45.6807 9.33789 45.498 9.33789C44.9001 9.33789 44.4972 9.56706 44.2896 10.0254V14H42.9844V8.18848H44.2305L44.2627 8.83838C44.5778 8.3335 45.0146 8.08105 45.5732 8.08105C45.7594 8.08105 45.9134 8.10612 46.0352 8.15625L46.0298 9.38086ZM49.3062 14.1074C48.479 14.1074 47.8076 13.8478 47.292 13.3286C46.7799 12.8058 46.5239 12.1112 46.5239 11.2446V11.0835C46.5239 10.5034 46.6349 9.986 46.8569 9.53125C47.0825 9.07292 47.3976 8.71663 47.8022 8.4624C48.2069 8.20817 48.658 8.08105 49.1558 8.08105C49.9471 8.08105 50.5576 8.3335 50.9873 8.83838C51.4206 9.34326 51.6372 10.0576 51.6372 10.9814V11.5078H47.8398C47.8792 11.9876 48.0386 12.3672 48.3179 12.6465C48.6007 12.9258 48.9552 13.0654 49.3813 13.0654C49.9793 13.0654 50.4663 12.8237 50.8423 12.3403L51.5459 13.0117C51.3132 13.359 51.0016 13.6294 50.6113 13.8228C50.2246 14.0125 49.7896 14.1074 49.3062 14.1074ZM49.1504 9.12842C48.7923 9.12842 48.5023 9.25374 48.2803 9.50439C48.0618 9.75505 47.9222 10.1042 47.8613 10.5518H50.3481V10.4551C50.3195 10.0182 50.2031 9.6888 49.999 9.4668C49.7949 9.24121 49.512 9.12842 49.1504 9.12842ZM52.4106 11.0513C52.4106 10.1561 52.6183 9.43815 53.0337 8.89746C53.4491 8.35319 54.0059 8.08105 54.7041 8.08105C55.32 8.08105 55.8177 8.2959 56.1973 8.72559V5.75H57.5024V14H56.3208L56.2563 13.3984C55.866 13.8711 55.3451 14.1074 54.6934 14.1074C54.013 14.1074 53.4616 13.8335 53.0391 13.2856C52.6201 12.7378 52.4106 11.993 52.4106 11.0513ZM53.7158 11.1641C53.7158 11.7549 53.8286 12.2168 54.0542 12.5498C54.2834 12.8792 54.6074 13.0439 55.0264 13.0439C55.5599 13.0439 55.9502 12.8058 56.1973 12.3296V9.84814C55.9574 9.38265 55.5706 9.1499 55.0371 9.1499C54.6146 9.1499 54.2887 9.3182 54.0596 9.65479C53.8304 9.98779 53.7158 10.4909 53.7158 11.1641Z" fill="#F1C40F"/>
</svg>
