<?xml version="1.0" encoding="iso-8859-1"?>
<!-- Generator: Adobe Illustrator 19.0.0, SVG Export Plug-In . SVG Version: 6.00 Build 0)  -->
<svg version="1.1" id="Capa_1" xmlns="http://www.w3.org/2000/svg" xmlns:xlink="http://www.w3.org/1999/xlink" x="0px" y="0px"
	 viewBox="0 0 512.01 512.01" style="enable-background:new 0 0 512.01 512.01;" xml:space="preserve">
<g>
	<g>
		<g>
			<path d="M137.442,184.7c-11.617-1.25-22.888-2.867-33.5-4.817c-3.002-0.559-6.074,0.528-8.055,2.851s-2.57,5.528-1.544,8.404
				c1.026,2.876,3.511,4.984,6.516,5.528c11.029,2.025,22.725,3.708,34.767,5c4.685,0.502,8.89-2.89,9.392-7.575
				C145.518,189.406,142.127,185.202,137.442,184.7z"/>
			<path d="M137.442,252.967c-11.617-1.25-22.888-2.867-33.5-4.817c-3.002-0.559-6.074,0.528-8.055,2.851
				c-1.981,2.323-2.57,5.528-1.544,8.404c1.026,2.876,3.511,4.984,6.516,5.528c11.029,2.025,22.725,3.708,34.767,5
				c4.685,0.502,8.89-2.89,9.392-7.575C145.518,257.673,142.127,253.468,137.442,252.967z"/>
			<path d="M137.442,321.233c-11.617-1.25-22.888-2.867-33.5-4.817c-3.002-0.559-6.074,0.528-8.055,2.851
				c-1.981,2.323-2.57,5.528-1.544,8.404c1.026,2.876,3.511,4.984,6.516,5.528c11.029,2.025,22.725,3.708,34.767,5
				c3.031,0.325,6.005-0.992,7.801-3.455c1.796-2.462,2.143-5.696,0.908-8.483C143.1,323.475,140.473,321.558,137.442,321.233z"/>
			<path d="M392.533,290.78v-0.221h-0.034c-6.139-46.818-47.559-80.836-94.677-77.76c-47.118,3.076-83.763,42.191-83.763,89.41
				s36.644,86.333,83.763,89.41c47.118,3.076,88.537-30.942,94.677-77.76h0.034v-0.221
				C393.617,306.056,393.617,298.36,392.533,290.78z M375.467,312.472c-5.124,35.688-35.667,62.206-71.721,62.269
				c-38.736,0.044-70.67-30.356-72.532-69.047c-1.862-38.691,27.006-72.017,65.567-75.693c38.561-3.675,73.205,23.597,78.686,61.943
				V312.472z"/>
			<path d="M504.508,468.292l-97.722-97.722c32.239-48.371,26.299-112.693-14.253-154.342V68.267
				C392.533,23.925,291.412,0,196.267,0S0,23.925,0,68.267v273.067C0,385.675,101.121,409.6,196.267,409.6
				c14.959,0,29.56-0.584,43.552-1.654c40.157,24.537,90.812,23.941,130.38-1.535l98.094,98.098
				c6.469,6.469,15.899,8.996,24.736,6.628s15.74-9.271,18.108-18.108S510.978,474.761,504.508,468.292z M196.267,17.067
				c111.025,0,179.2,29.817,179.2,51.2c0,21.383-68.175,51.2-179.2,51.2s-179.2-29.817-179.2-51.2
				C17.067,46.883,85.242,17.067,196.267,17.067z M196.267,392.533c-102.562,0-179.2-27.034-179.2-51.2v-38.965
				c14.759,10.411,31.283,18.062,48.771,22.582c4.52,1.342,9.271-1.235,10.613-5.754s-1.235-9.271-5.754-10.613
				c-39.542-11.733-53.629-26.041-53.629-35.516v-38.965c14.759,10.411,31.283,18.062,48.771,22.582
				c4.52,1.342,9.271-1.235,10.613-5.754s-1.235-9.271-5.754-10.613c-39.542-11.733-53.629-26.041-53.629-35.516v-38.965
				c14.759,10.411,31.283,18.062,48.771,22.582c4.52,1.342,9.271-1.235,10.613-5.754s-1.235-9.271-5.754-10.613
				c-39.542-11.733-53.629-26.041-53.629-35.516V97.457c32.78,25.552,107.672,39.077,179.2,39.077s146.42-13.524,179.2-39.077
				v39.077c0,14.2-30.205,32.072-82.916,42.509c-6.366,0.6-12.676,1.697-18.871,3.282c-25.637,3.697-51.511,5.505-77.413,5.409
				c-8.558,0-16.969-0.181-25.233-0.542c-4.685-0.167-8.628,3.477-8.83,8.161s3.414,8.653,8.096,8.889
				c8.492,0.367,17.147,0.553,25.966,0.559c10.881,0,21.837-0.329,32.715-0.949c-17.713,13.458-31.488,31.426-39.884,52.026
				c-6.086-0.062-12.169-0.126-18.064-0.377c-4.69-0.175-8.641,3.471-8.843,8.16c-0.202,4.689,3.422,8.661,8.11,8.889
				c4.369,0.19,8.915,0.195,13.384,0.28c-4.264,16.727-4.821,34.184-1.633,51.149c-3.698-0.074-7.479-0.089-11.089-0.213
				c-3.057-0.125-5.947,1.398-7.574,3.99s-1.74,5.856-0.297,8.555c1.443,2.699,4.22,4.418,7.279,4.505
				c5.21,0.185,10.618,0.245,16.008,0.311c6.484,19.422,17.683,36.933,32.593,50.966
				C211.523,392.385,203.939,392.533,196.267,392.533z M375.467,165.723v35.85c-10.776-7.749-22.734-13.706-35.41-17.64
				C352.727,179.723,364.671,173.58,375.467,165.723z M303.746,408.875c-58.91,0-106.667-47.756-106.667-106.667
				c0.089-48.902,33.391-91.492,80.829-103.37c5.622-0.852,11.136-1.794,16.54-2.826c3.07-0.267,6.159-0.471,9.297-0.471
				c58.91,0,106.667,47.756,106.667,106.667S362.656,408.875,303.746,408.875z M492.442,492.442c-3.338,3.333-8.745,3.333-12.083,0
				l-96.294-96.298c4.321-3.72,8.382-7.732,12.154-12.008l96.219,96.223C495.77,483.696,495.772,489.102,492.442,492.442z"/>
		</g>
	</g>
</g>
<g>
</g>
<g>
</g>
<g>
</g>
<g>
</g>
<g>
</g>
<g>
</g>
<g>
</g>
<g>
</g>
<g>
</g>
<g>
</g>
<g>
</g>
<g>
</g>
<g>
</g>
<g>
</g>
<g>
</g>
</svg>
