<svg height="512pt" viewBox="-20 0 512 512" width="512pt" xmlns="http://www.w3.org/2000/svg">
	<path fill="white" d="m470.957031 231.953125c-1.863281-128.476563-106.414062-231.953125-235.457031-231.953125-129.007812 0-233.59375 103.433594-235.4570312 231.953125-.0664063 2.199219-.015625 1.679687-.0429688 78.363281 0 30.160156 24.535156 54.699219 54.695312 54.699219h.007813c30.160156 0 54.695313-24.539063 54.695313-54.699219v-76.679687c0-30.160157-24.535157-54.695313-54.703126-54.695313-2.1875 0-4.34375.144532-6.46875.394532 24.179688-80.507813 98.976563-139.335938 187.273438-139.335938 88.292969 0 163.09375 58.828125 187.273438 139.335938-2.125-.25-4.285157-.394532-6.476563-.394532-30.15625 0-54.695313 24.535156-54.695313 54.695313v76.679687c0 30.160156 24.539063 54.699219 54.695313 54.699219h.007813c.53125 0 1.054687-.027344 1.582031-.042969-19.972657 39.105469-60.664063 65.945313-107.507813 65.945313h-17.175781c-8.304687-23.886719-31.023437-41.082031-57.703125-41.082031-33.679688 0-61.082031 27.398437-61.082031 61.082031 0 33.679687 27.402343 61.082031 61.082031 61.082031 26.679688 0 49.398438-17.195312 57.703125-41.082031h17.175781c88.566406 0 160.621094-72.042969 160.621094-160.597657v-.003906-76.679687c0-.566407-.027344-1.121094-.042969-1.683594zm-416.253906-13.011719c8.105469 0 14.695313 6.589844 14.695313 14.695313v76.679687c0 8.105469-6.589844 14.695313-14.695313 14.695313h-.007813c-8.101562 0-14.695312-6.589844-14.695312-14.695313.015625-50.789062-.035156-71.882812.03125-77.292968.324219-7.816407 6.765625-14.082032 14.671875-14.082032zm180.796875 253.058594c-11.625 0-21.082031-9.457031-21.082031-21.082031s9.457031-21.082031 21.082031-21.082031 21.082031 9.457031 21.082031 21.082031-9.457031 21.082031-21.082031 21.082031zm195.5-161.683594c0 8.105469-6.59375 14.695313-14.695312 14.695313h-.007813c-8.101563 0-14.695313-6.589844-14.695313-14.695313v-76.679687c0-8.105469 6.59375-14.695313 14.703126-14.695313 7.898437 0 14.339843 6.265625 14.664062 14.082032.058594 4.796874.007812-1.03125.03125 77.292968zm0 0"/></svg>
