<svg width="76" height="20" viewBox="0 0 76 20" fill="none" xmlns="http://www.w3.org/2000/svg">
<rect x="0.5" y="0.5" width="75" height="19" rx="2.5" stroke="#E74C3C"/>
<path d="M23.9287 12.0664L25.1318 6.17969H26.48L24.6753 14H23.3755L21.8877 8.29053L20.3677 14H19.0625L17.2578 6.17969H18.606L19.8198 12.0557L21.313 6.17969H22.4517L23.9287 12.0664ZM30.6372 14C30.5799 13.889 30.5298 13.7082 30.4868 13.4575C30.0715 13.8908 29.563 14.1074 28.9614 14.1074C28.3778 14.1074 27.9015 13.9409 27.5327 13.6079C27.1639 13.2749 26.9795 12.8631 26.9795 12.3726C26.9795 11.7531 27.2087 11.2786 27.667 10.9492C28.1289 10.6162 28.7878 10.4497 29.6436 10.4497H30.4438V10.0684C30.4438 9.76758 30.3597 9.52767 30.1914 9.34863C30.0231 9.16602 29.7671 9.07471 29.4233 9.07471C29.1261 9.07471 28.8826 9.1499 28.6929 9.30029C28.5031 9.4471 28.4082 9.63509 28.4082 9.86426H27.103C27.103 9.54557 27.2087 9.24837 27.4199 8.97266C27.6312 8.69336 27.9176 8.47493 28.2793 8.31738C28.6445 8.15983 29.0509 8.08105 29.4985 8.08105C30.1789 8.08105 30.7214 8.25293 31.126 8.59668C31.5306 8.93685 31.7383 9.41667 31.749 10.0361V12.6572C31.749 13.18 31.8224 13.5972 31.9692 13.9087V14H30.6372ZM29.2031 13.0601C29.4609 13.0601 29.7026 12.9974 29.9282 12.8721C30.1574 12.7467 30.3293 12.5785 30.4438 12.3672V11.2715H29.7402C29.2568 11.2715 28.8934 11.3556 28.6499 11.5239C28.4064 11.6922 28.2847 11.9303 28.2847 12.2383C28.2847 12.4889 28.367 12.6895 28.5317 12.8398C28.7 12.9867 28.9238 13.0601 29.2031 13.0601ZM36.1587 9.38086C35.9868 9.35221 35.8096 9.33789 35.627 9.33789C35.029 9.33789 34.6261 9.56706 34.4185 10.0254V14H33.1133V8.18848H34.3594L34.3916 8.83838C34.7067 8.3335 35.1436 8.08105 35.7021 8.08105C35.8883 8.08105 36.0423 8.10612 36.1641 8.15625L36.1587 9.38086ZM38.1943 8.18848L38.2319 8.85986C38.6616 8.34066 39.2256 8.08105 39.9238 8.08105C41.1341 8.08105 41.75 8.77393 41.7715 10.1597V14H40.4663V10.2349C40.4663 9.86605 40.3857 9.59391 40.2246 9.41846C40.0671 9.23942 39.8075 9.1499 39.4458 9.1499C38.9194 9.1499 38.5273 9.38802 38.2695 9.86426V14H36.9644V8.18848H38.1943ZM44.4946 14H43.1895V8.18848H44.4946V14ZM43.1089 6.6792C43.1089 6.47868 43.1715 6.31217 43.2969 6.17969C43.4258 6.0472 43.6084 5.98096 43.8447 5.98096C44.0811 5.98096 44.2637 6.0472 44.3926 6.17969C44.5215 6.31217 44.5859 6.47868 44.5859 6.6792C44.5859 6.87614 44.5215 7.04085 44.3926 7.17334C44.2637 7.30225 44.0811 7.3667 43.8447 7.3667C43.6084 7.3667 43.4258 7.30225 43.2969 7.17334C43.1715 7.04085 43.1089 6.87614 43.1089 6.6792ZM47.1318 8.18848L47.1694 8.85986C47.5991 8.34066 48.1631 8.08105 48.8613 8.08105C50.0716 8.08105 50.6875 8.77393 50.709 10.1597V14H49.4038V10.2349C49.4038 9.86605 49.3232 9.59391 49.1621 9.41846C49.0046 9.23942 48.745 9.1499 48.3833 9.1499C47.8569 9.1499 47.4648 9.38802 47.207 9.86426V14H45.9019V8.18848H47.1318ZM51.8154 11.0513C51.8154 10.1489 52.0267 9.4292 52.4492 8.89209C52.8753 8.3514 53.4393 8.08105 54.1411 8.08105C54.8035 8.08105 55.3245 8.31201 55.7041 8.77393L55.7632 8.18848H56.9395V13.8228C56.9395 14.5854 56.7013 15.187 56.2251 15.6274C55.7524 16.0679 55.1133 16.2881 54.3076 16.2881C53.8815 16.2881 53.4644 16.1986 53.0562 16.0195C52.6515 15.8441 52.3436 15.6131 52.1323 15.3267L52.75 14.5425C53.151 15.0187 53.6452 15.2568 54.2324 15.2568C54.6657 15.2568 55.0076 15.1387 55.2583 14.9023C55.509 14.6696 55.6343 14.3258 55.6343 13.8711V13.479C55.2583 13.8979 54.757 14.1074 54.1304 14.1074C53.45 14.1074 52.8932 13.8371 52.46 13.2964C52.0303 12.7557 51.8154 12.0073 51.8154 11.0513ZM53.1152 11.1641C53.1152 11.7477 53.2334 12.2078 53.4697 12.5444C53.7096 12.8774 54.0409 13.0439 54.4634 13.0439C54.9897 13.0439 55.38 12.8184 55.6343 12.3672V9.81055C55.3872 9.37012 55.0005 9.1499 54.4741 9.1499C54.0444 9.1499 53.7096 9.31999 53.4697 9.66016C53.2334 10.0003 53.1152 10.5016 53.1152 11.1641Z" fill="#E74C3C"/>
</svg>
